<svg xmlns="http://www.w3.org/2000/svg" viewBox="0 0 100.92 105"><defs><style>.cls-1{fill:#f57031;}.cls-2{fill:#d65b2b;}.cls-3{fill:#ffdba9;}.cls-4{fill:#ffc473;}.cls-5{fill:#ffaa20;}.cls-6{fill:#00acea;}.cls-7{fill:#0082d1;}.cls-8{fill:#006387;}.cls-9{fill:#ffa91f;}.cls-10{fill:#0287a5;}.cls-11{fill:#ffcf00;}.cls-12{fill:#fff;}.cls-13{fill:#d9d9db;}.cls-14{fill:#ffe8cc;}</style></defs><title>big_pirate_icon</title><g id="Layer_2" data-name="Layer 2"><g id="Capa_1" data-name="Capa 1"><g id="_Group_" data-name="&lt;Group&gt;"><circle id="_Path_" data-name="&lt;Path&gt;" class="cls-1" cx="50.46" cy="50.46" r="50.46"/><path id="_Path_2" data-name="&lt;Path&gt;" class="cls-2" d="M67.45,21.69a21.22,21.22,0,0,0-15.72-6.93H49.14A21.29,21.29,0,0,0,28.66,30.23C25.32,27,20,26.37,20,26.37a17,17,0,0,0,1.59,8.49,17.17,17.17,0,0,0-7.76,3.3l10,10.08.33,3.05a5,5,0,0,0,2,3.46v3.56a1.31,1.31,0,0,0,.39.93L41.68,74.31v5.42h-9.1l-.41,0h-.42l-.42,0h-.17l-.16,0h-.12l-.28,0-.14,0h0l-.16,0-.08,0L30,80l-.21,0A15.07,15.07,0,0,0,18.87,89.8a50.44,50.44,0,0,0,81.84-34.85Z"/><path id="_Path_3" data-name="&lt;Path&gt;" class="cls-3" d="M82.88,87.69v1.43a50.44,50.44,0,0,1-11.73,7.37l-.8.35a50.6,50.6,0,0,1-39.78,0l-.8-.35A50.45,50.45,0,0,1,18,89.12V87.69A15,15,0,0,1,29.76,73.09l.2,0,.21,0,.08,0,.16,0h0l.14,0,.28,0H31l.16,0h.17l.42,0h.42l.41,0H69.17l.42,0h.17l.16,0H70l.42.07h0l.16,0,.26,0,.16,0,.08,0A15,15,0,0,1,82.88,87.69Z"/><path id="_Path_4" data-name="&lt;Path&gt;" class="cls-4" d="M82.88,87.69v1.43a50.44,50.44,0,0,1-11.73,7.37l-.8.35a50.28,50.28,0,0,1-19.89,4.07V72.73H69.17l.42,0h.17l.16,0H70l.42.07h0l.16,0,.26,0,.16,0,.08,0A15,15,0,0,1,82.88,87.69Z"/><rect id="_Path_5" data-name="&lt;Path&gt;" class="cls-4" x="41.68" y="64.02" width="17.56" height="22.15"/><rect id="_Path_6" data-name="&lt;Path&gt;" class="cls-5" x="50.46" y="64.02" width="8.78" height="22.15"/><g id="_Group_2" data-name="&lt;Group&gt;"><path id="_Path_7" data-name="&lt;Path&gt;" class="cls-6" d="M71.16,73.09v23.4l-.8.35a50.6,50.6,0,0,1-39.78,0l-.8-.35V73.09l.2,0,.21,0,.42-.07.28,0H31l.25,0h.08l.42,0h.42l.41,0h9.1a8.78,8.78,0,1,0,17.55,0H69.31l.24,0h.13l.12,0H70l.27,0,.18,0,.27.05.12,0Z"/><path id="_Path_8" data-name="&lt;Path&gt;" class="cls-6" d="M71.16,73.09V96.49l-.8.35a50.6,50.6,0,0,1-39.78,0l-.8-.35V73.09l.2,0,.21,0,.08,0,.16,0h0l.14,0,.28,0H31l.16,0h.17l.42,0h.42l.41,0h9.1a8.78,8.78,0,0,0,17.55,0H69.31l.24,0h.22l.16,0H70l.42.07h0l.16,0,.26,0,.16,0Z"/></g><path id="_Path_9" data-name="&lt;Path&gt;" class="cls-7" d="M71.16,73.09v23.4l-.8.35a50.28,50.28,0,0,1-19.89,4.07V81.51a8.78,8.78,0,0,0,8.78-8.78h9.51l.56,0,.24,0,.25,0h0l.23,0h0l.27,0,.18,0,.27.05.12,0,.19,0Z"/><g id="_Group_3" data-name="&lt;Group&gt;"><path id="_Path_10" data-name="&lt;Path&gt;" class="cls-8" d="M13.87,38.49s8.81,10.66,17.2,1.77C24.67,29.84,13.87,38.49,13.87,38.49Z"/><path id="_Path_11" data-name="&lt;Path&gt;" class="cls-8" d="M20,26.7S18.73,40.48,31,40.12C33.79,28.22,20,26.7,20,26.7Z"/><g id="_Group_4" data-name="&lt;Group&gt;"><path id="_Path_12" data-name="&lt;Path&gt;" class="cls-3" d="M73.06,42.14a23.26,23.26,0,0,0-22.6-21.77,23.26,23.26,0,0,0-22.6,21.77,5,5,0,0,0-4.06,5.46l.44,4a5,5,0,0,0,5.52,4.44l.47-.05c5.61,14.59,14.65,18.35,20.23,19.2C56,74.36,65.09,70.61,70.69,56l.47.05a5,5,0,0,0,5.52-4.44l.44-4A5,5,0,0,0,73.06,42.14Z"/><path id="_Path_13" data-name="&lt;Path&gt;" class="cls-3" d="M77.12,47.59l-.44,4a5,5,0,0,1-5.52,4.44L70.69,56C65.09,70.61,56,74.36,50.46,75.22V24.85H63.58a23,23,0,0,1,9.48,17.29A5,5,0,0,1,77.12,47.59Z"/></g><g id="_Group_5" data-name="&lt;Group&gt;"><path id="_Path_14" data-name="&lt;Path&gt;" class="cls-4" d="M77.12,47.59l-.44,4a5,5,0,0,1-5.52,4.44L70.69,56C65.09,70.61,56,74.36,50.46,75.22V20.36A23.26,23.26,0,0,1,73,41.57c0,.2,0,.38,0,.56A5,5,0,0,1,77.12,47.59Z"/><rect id="_Path_15" data-name="&lt;Path&gt;" class="cls-4" x="35.38" y="46.45" width="11.65" height="5.05"/></g><polygon id="_Path_16" data-name="&lt;Path&gt;" class="cls-9" points="50.46 46.45 50.46 62.5 55.51 62.5 55.51 51.5 66.51 51.5 66.51 46.45 50.46 46.45"/><path id="_Path_17" data-name="&lt;Path&gt;" class="cls-10" d="M51.73,15.09H49.14A21.28,21.28,0,0,0,27.86,36.37v5.77H73V36.37A21.28,21.28,0,0,0,51.73,15.09Z"/><path id="_Path_18" data-name="&lt;Path&gt;" class="cls-8" d="M73,36.37A21.28,21.28,0,0,0,51.73,15.09H50.46v27H73Z"/><path id="_Path_19" data-name="&lt;Path&gt;" class="cls-11" d="M27.54,60h0a1.32,1.32,0,0,1-1.31-1.31V53.8a1.32,1.32,0,0,1,1.31-1.31h0a1.32,1.32,0,0,1,1.31,1.31v4.85A1.32,1.32,0,0,1,27.54,60Z"/></g><g id="_Group_6" data-name="&lt;Group&gt;"><path id="_Path_20" data-name="&lt;Path&gt;" class="cls-12" d="M42.37,76.15H29.76v4.53h17A8.81,8.81,0,0,1,42.37,76.15Z"/><path id="_Path_21" data-name="&lt;Path&gt;" class="cls-12" d="M54.17,80.68h17V76.15H58.55A8.81,8.81,0,0,1,54.17,80.68Z"/><rect id="_Path_22" data-name="&lt;Path&gt;" class="cls-12" x="29.76" y="86.5" width="41.39" height="4.53"/><path id="_Path_23" data-name="&lt;Path&gt;" class="cls-12" d="M70.35,96.85a50.6,50.6,0,0,1-39.78,0Z"/></g><g id="_Group_7" data-name="&lt;Group&gt;"><path id="_Path_24" data-name="&lt;Path&gt;" class="cls-13" d="M58.38,76.53l-.08.15-.11.22-.1.17-.11.18-.12.18-.1.16-.13.19-.1.14-.15.19-.1.13-.16.2-.1.11-.18.2-.09.1-.2.2-.09.08-.22.2-.08.07-.24.19-.07.06-.25.19-.06,0-.28.19-.05,0-.3.18,0,0-.32.18h0l-.35.17h17V76.15H58.55Z"/><rect id="_Path_25" data-name="&lt;Path&gt;" class="cls-13" x="50.46" y="86.5" width="20.7" height="4.53"/><path id="_Path_26" data-name="&lt;Path&gt;" class="cls-13" d="M70.35,96.85a50.28,50.28,0,0,1-19.89,4.07V96.85Z"/></g><path id="_Path_27" data-name="&lt;Path&gt;" class="cls-14" d="M23.28,82.17s3.86-.86,6.6,3.25c0,0,3.44,4.18,1.66,8a5.61,5.61,0,0,1-2.44,3l-13.7,8.37A1.66,1.66,0,0,1,13.5,102l7.27-4.46-.28-.4L10.4,103.37a1.67,1.67,0,0,1-2.16-.6,1.94,1.94,0,0,1,.92-2.49l9.61-5.87L18.47,94,7.1,101a1.86,1.86,0,0,1-2.2-.46,1.61,1.61,0,0,1,.51-2.32l11.44-7.07-.44-.46-10,6.13a1.71,1.71,0,0,1-2.17-.53A1.68,1.68,0,0,1,4.79,94l11.35-6.9a5.16,5.16,0,0,1,1.59-.84s-.12-.19-4.66-2a1.52,1.52,0,0,1-1.28-1.23L11.71,82A1.37,1.37,0,0,1,13,80.68l2.7.35Z"/><path id="_Path_28" data-name="&lt;Path&gt;" class="cls-3" d="M77.64,82.17s-3.86-.86-6.6,3.25c0,0-3.44,4.18-1.66,8a5.61,5.61,0,0,0,2.44,3l13.7,8.37a1.66,1.66,0,0,0,1.9-2.72l-7.27-4.46.28-.4,10.08,6.21a1.67,1.67,0,0,0,2.16-.6,1.94,1.94,0,0,0-.92-2.49l-9.61-5.87.29-.43,11.37,7a1.86,1.86,0,0,0,2.2-.46,1.61,1.61,0,0,0-.51-2.32L84.06,91.14l.44-.46,10,6.13a1.71,1.71,0,0,0,2.17-.53A1.68,1.68,0,0,0,96.13,94L84.79,87.1a5.16,5.16,0,0,0-1.59-.84s.12-.19,4.66-2a1.52,1.52,0,0,0,1.28-1.23L89.21,82a1.37,1.37,0,0,0-1.28-1.28l-2.7.35Z"/></g></g></g></svg>