<svg xmlns="http://www.w3.org/2000/svg" viewBox="0 0 65.53 65.53"><defs><style>.cls-1{fill:#006387;}.cls-2{fill:#01556b;}.cls-3{fill:#ffc61b;}.cls-4{fill:#eaa22f;}.cls-5{fill:#dafcff;}.cls-6{fill:#00b1bc;}.cls-7{fill:#0281a3;}.cls-8{fill:#eca859;}.cls-9{fill:#f57031;}</style></defs><title>Asset 25_icon</title><g id="Layer_2" data-name="Layer 2"><g id="Capa_1" data-name="Capa 1"><g id="_Group_" data-name="&lt;Group&gt;"><circle id="_Path_" data-name="&lt;Path&gt;" class="cls-1" cx="32.76" cy="32.76" r="32.76"/><path id="_Path_2" data-name="&lt;Path&gt;" class="cls-2" d="M34.6,65.47A32.76,32.76,0,0,0,65.47,34.59l-17.3-17.3-.36.75-15-15-.33,29.44L3,32.76,17.44,47.22l-.65.43Z"/><circle id="_Path_3" data-name="&lt;Path&gt;" class="cls-3" cx="32.76" cy="32.76" r="21.84"/><path id="_Path_4" data-name="&lt;Path&gt;" class="cls-4" d="M32.76,10.92h-.07V54.6h.07a21.84,21.84,0,0,0,0-43.68Z"/><circle id="_Path_5" data-name="&lt;Path&gt;" class="cls-5" cx="32.76" cy="32.76" r="16.38"/><path id="_Path_6" data-name="&lt;Path&gt;" class="cls-6" d="M32.76,16.38h-.07V49.14h.07a16.38,16.38,0,1,0,0-32.76Z"/><polygon id="_Path_7" data-name="&lt;Path&gt;" class="cls-1" points="30.11 30.11 47.1 18.42 35.42 35.42 30.11 30.11"/><polygon id="_Path_8" data-name="&lt;Path&gt;" class="cls-7" points="35.42 35.42 18.42 47.1 30.11 30.11 35.42 35.42"/><polygon id="_Path_9" data-name="&lt;Path&gt;" class="cls-1" points="35.42 30.11 47.1 47.1 30.11 35.42 35.42 30.11"/><polygon id="_Path_10" data-name="&lt;Path&gt;" class="cls-7" points="30.11 35.42 18.42 18.42 35.42 30.11 30.11 35.42"/><polygon id="_Path_11" data-name="&lt;Path&gt;" class="cls-8" points="27.25 32.76 32.76 2.98 38.28 32.76 27.25 32.76"/><polygon id="_Path_12" data-name="&lt;Path&gt;" class="cls-9" points="32.76 2.98 32.76 3.43 32.76 32.82 38.28 32.76 32.76 2.98"/><polygon id="_Path_13" data-name="&lt;Path&gt;" class="cls-8" points="38.28 32.76 32.76 62.55 27.25 32.76 38.28 32.76"/><polygon id="_Path_14" data-name="&lt;Path&gt;" class="cls-9" points="38.28 32.76 32.76 32.8 32.76 62.19 32.76 62.55 38.28 32.76"/><polygon id="_Path_15" data-name="&lt;Path&gt;" class="cls-9" points="32.76 27.25 62.55 32.76 32.76 38.28 32.76 27.25"/><polygon id="_Path_16" data-name="&lt;Path&gt;" class="cls-8" points="32.76 38.28 2.98 32.76 32.76 27.25 32.76 38.28"/></g></g></g></svg>