<svg xmlns="http://www.w3.org/2000/svg" viewBox="0 0 20.48 20.48"><defs><style>.cls-1{fill:#fff;}.cls-2{fill:#1d1d1d;}</style></defs><title>fb_blck</title><g id="Layer_2" data-name="Layer 2"><g id="Capa_1" data-name="Capa 1"><g id="_Group_" data-name="&lt;Group&gt;"><circle id="_Path_" data-name="&lt;Path&gt;" class="cls-1" cx="10.24" cy="10.24" r="10.24"/><path id="_Path_2" data-name="&lt;Path&gt;" class="cls-1" d="M20.46,9.67,15.64,4.84c-.08,0-.28-.07-.37-.05-2.07.34-4.07,0-6.07.55-1,.28-1,1.45-1.38,2.21-.48,1.38-.41,2.9-1,4.21-.41.9-1.38,1.45-1.72,2.48-.11.43-.11,1-.24,1.39l4.84,4.84.57,0A10.24,10.24,0,0,0,20.48,10.24C20.48,10,20.47,9.86,20.46,9.67Z"/><g id="_Group_2" data-name="&lt;Group&gt;"><path id="_Path_3" data-name="&lt;Path&gt;" class="cls-2" d="M14.52,4.38H6A1.58,1.58,0,0,0,4.38,6v8.56A1.58,1.58,0,0,0,6,16.1h4.22V11.91H9.1a.26.26,0,0,1-.26-.26V10.3A.26.26,0,0,1,9.09,10h1.09V8.74A2.13,2.13,0,0,1,12.45,6.4h1.11a.26.26,0,0,1,.26.26V7.8a.26.26,0,0,1-.26.26h-.68c-.73,0-.88.35-.88.86V10h1.61a.26.26,0,0,1,.25.29l-.16,1.35a.26.26,0,0,1-.25.23H12V16.1h2.51a1.58,1.58,0,0,0,1.58-1.58V6a1.58,1.58,0,0,0-1.58-1.58Z"/><polygon id="_Path_4" data-name="&lt;Path&gt;" class="cls-1" points="10.18 16.1 10.19 11.91 10.17 11.91 10.17 16.1 10.18 16.1"/></g><path id="_Path_5" data-name="&lt;Path&gt;" class="cls-2" d="M14.52,4.38H10.17V10h0V8.74A2.13,2.13,0,0,1,12.45,6.4h1.11a.26.26,0,0,1,.26.26V7.8a.26.26,0,0,1-.26.26h-.68c-.73,0-.88.35-.88.86V10h1.61a.26.26,0,0,1,.25.29l-.16,1.35a.26.26,0,0,1-.25.23H12V16.1h2.51a1.58,1.58,0,0,0,1.58-1.58V6A1.58,1.58,0,0,0,14.52,4.38Z"/></g></g></g></svg>