<svg xmlns="http://www.w3.org/2000/svg" viewBox="0 0 68.32 68.32"><defs><style>.cls-1{fill:#ff7137;}.cls-2{fill:#f25b2f;}.cls-3{fill:#758f9a;}.cls-4{fill:#4b7689;}.cls-5{fill:#fff;}.cls-6{fill:#e0e0e0;}.cls-7{fill:#a5e1eb;}.cls-8{fill:#78bed2;}.cls-9{fill:#005d76;}.cls-10{fill:#00223c;}.cls-11{fill:#00baff;}.cls-12{fill:#008cc3;}</style></defs><title>Asset 48_icon</title><g id="Layer_2" data-name="Layer 2"><g id="Capa_1" data-name="Capa 1"><g id="_Group_" data-name="&lt;Group&gt;"><circle id="_Path_" data-name="&lt;Path&gt;" class="cls-1" cx="34.16" cy="34.16" r="34.16"/><path id="_Path_2" data-name="&lt;Path&gt;" class="cls-2" d="M68.32,34.16c0-.76,0-1.51-.08-2.26L44.89,8.55,34.54,20.74,64.21,50.41A34,34,0,0,0,68.32,34.16Z"/><path id="_Path_3" data-name="&lt;Path&gt;" class="cls-3" d="M45.54,15.18H22.77V10.31a2.72,2.72,0,0,1,2.72-2.72H42.82a2.72,2.72,0,0,1,2.72,2.72v4.87Z"/><path id="_Path_4" data-name="&lt;Path&gt;" class="cls-4" d="M45.54,10.31a2.72,2.72,0,0,0-2.72-2.72H34.16v7.59H45.54Z"/><path id="_Path_5" data-name="&lt;Path&gt;" class="cls-5" d="M46.44,37H21.87A2.89,2.89,0,0,1,19,34.14v-17a2.89,2.89,0,0,1,2.89-2.89H46.44a2.89,2.89,0,0,1,2.89,2.89v17A2.89,2.89,0,0,1,46.44,37Z"/><path id="_Path_6" data-name="&lt;Path&gt;" class="cls-6" d="M46.44,14.26H34.16V37H46.44a2.89,2.89,0,0,0,2.89-2.89v-17A2.89,2.89,0,0,0,46.44,14.26Z"/><rect id="_Path_7" data-name="&lt;Path&gt;" class="cls-7" x="22.77" y="18.06" width="22.77" height="7.59"/><rect id="_Path_8" data-name="&lt;Path&gt;" class="cls-8" x="34.16" y="18.06" width="11.39" height="7.59"/><path id="_Path_9" data-name="&lt;Path&gt;" class="cls-9" d="M50.21,60s10-7.52,10.63-26.59L34.25,22.77,7.67,33.41S5.15,44.9,18.3,60Z"/><path id="_Path_10" data-name="&lt;Path&gt;" class="cls-10" d="M34.25,22.77l-.1,0V60h16s10-7.52,10.63-26.59Z"/><path id="_Path_11" data-name="&lt;Path&gt;" class="cls-11" d="M2,45.78a34.17,34.17,0,0,0,62.66,3.71c-4.48-5.17-8.33-8.57-20.14-3C27.47,54.57,10.82,49.66,2,45.78Z"/><path id="_Path_12" data-name="&lt;Path&gt;" class="cls-12" d="M64.69,49.49c-4.48-5.17-8.33-8.57-20.14-3a45,45,0,0,1-10.39,3.45V68.32A34.16,34.16,0,0,0,64.69,49.49Z"/></g></g></g></svg>