<svg xmlns="http://www.w3.org/2000/svg" viewBox="0 0 73.65 73.65"><defs><style>.cls-1{fill:#f57031;}.cls-2{fill:#d65b2b;}.cls-3{fill:#ffedb5;}.cls-4{fill:#fee187;}.cls-5{fill:#05c4bf;}.cls-6{fill:#00b1bc;}.cls-7{fill:#477f3c;}.cls-8{fill:#2e5e24;}</style></defs><title>Asset 18_icon</title><g id="Layer_2" data-name="Layer 2"><g id="Capa_1" data-name="Capa 1"><g id="_Group_" data-name="&lt;Group&gt;"><circle id="_Path_" data-name="&lt;Path&gt;" class="cls-1" cx="36.83" cy="36.83" r="36.83"/><path id="_Path_2" data-name="&lt;Path&gt;" class="cls-2" d="M72.61,45.55l-24.7-24.7L36.09,32.45l-.92.78-8,4L39.26,49.33,25.83,52.45l-6.44,8.93L31.24,73.23A36.87,36.87,0,0,0,72.61,45.55Z"/><path id="_Path_3" data-name="&lt;Path&gt;" class="cls-3" d="M53.7,47.3A1.48,1.48,0,0,0,52,46.78h0L41.38,50.31c0,.08,0,.17,0,.26a2.76,2.76,0,0,1-2.47,2.57l-6.37.66a.73.73,0,0,1-.15-1.46l6.37-.66a1.3,1.3,0,0,0,0-2.59l-8.46-.55a5,5,0,0,0-2.73.61L16.37,55.29l3,6.09,2.8-2.44a5.25,5.25,0,0,1,4.32-1.23l9.36,1.56a6.78,6.78,0,0,0,4.84-1.2l12.75-8.78A1.48,1.48,0,0,0,53.7,47.3Z"/><g id="_Group_2" data-name="&lt;Group&gt;"><path id="_Path_4" data-name="&lt;Path&gt;" class="cls-4" d="M38.75,51.67a1.3,1.3,0,0,0,0-2.59l-2-.13v2.92Z"/><path id="_Path_5" data-name="&lt;Path&gt;" class="cls-4" d="M53.7,47.3A1.48,1.48,0,0,0,52,46.78h0L41.38,50.31c0,.08,0,.17,0,.26a2.76,2.76,0,0,1-2.47,2.57l-2.16.22v6a6.77,6.77,0,0,0,4-1.26l12.75-8.78A1.48,1.48,0,0,0,53.7,47.3Z"/></g><circle id="_Path_6" data-name="&lt;Path&gt;" class="cls-5" cx="36.83" cy="28.15" r="13.27"/><path id="_Path_7" data-name="&lt;Path&gt;" class="cls-6" d="M36.83,14.88h-.06V41.41h.06a13.27,13.27,0,1,0,0-26.53Z"/><path id="_Path_8" data-name="&lt;Path&gt;" class="cls-7" d="M33.5,29.7c-2.57-.8-2.47-3.59-.48-4.13s1-1.34,1.88-3.48-.48-1.39-1.45-3.38a4.89,4.89,0,0,1-.25-3.33,13.28,13.28,0,0,0-9.45,10.51c2.68,2.76,6.14-.77,6.75,1.45s-.21,3.27-.21,3.27a10.54,10.54,0,0,0-1.45,3.91c0,1,3.16,4.53,5.1,6.57q.59.13,1.21.21a3.09,3.09,0,0,1,1.41-3.24c2.31-1.23,2.73-5.79,2.73-5.79l-2.14-1.55S36.07,30.5,33.5,29.7Z"/><g id="_Group_3" data-name="&lt;Group&gt;"><path id="_Path_9" data-name="&lt;Path&gt;" class="cls-8" d="M39.29,32.27l-2.14-1.55-.38-.09v7.3C38.89,36.55,39.29,32.27,39.29,32.27Z"/><path id="_Path_10" data-name="&lt;Path&gt;" class="cls-8" d="M40.57,15.42c-.49.89-1.86,3.57-1.28,4.63.7,1.29.48-.43,2.25,0s3.11,1,4.29.8,2.2,2.41.75,3.11,1.29,5.68,1.29,5.68l1.79,1.86a13.28,13.28,0,0,0-9.09-16.09Z"/></g></g></g></g></svg>