<svg xmlns="http://www.w3.org/2000/svg" viewBox="0 0 68.71 68.71"><defs><style>.cls-1{fill:#006387;}.cls-2{fill:#01556b;}.cls-3{fill:#ffedb5;}.cls-4{fill:#fee187;}.cls-5{fill:#db9b45;}.cls-6{fill:#c1853e;}.cls-7{fill:#ffc61b;}.cls-8{fill:#eaa22f;}</style></defs><title>Asset 49_icon</title><g id="Layer_2" data-name="Layer 2"><g id="Capa_1" data-name="Capa 1"><g id="_Group_" data-name="&lt;Group&gt;"><circle id="_Path_" data-name="&lt;Path&gt;" class="cls-1" cx="34.35" cy="34.35" r="34.35"/><path id="_Path_2" data-name="&lt;Path&gt;" class="cls-2" d="M40.9,68.08A34.36,34.36,0,0,0,68.68,35.69L53.62,20.63l-6.39,7.92-20,3.15-8-8-2.61,1.47,7.26,7.26L6.7,33.89Z"/><path id="_Path_3" data-name="&lt;Path&gt;" class="cls-3" d="M17.58,24.27l2,.75a9.27,9.27,0,0,0,3.8.59l9.74-.55,18,15.79A1.45,1.45,0,0,1,51,43.11l-.3.22a1.45,1.45,0,0,1-1.78,0L36.1,33.11a.51.51,0,0,0-.68,0l-.2.2a.51.51,0,0,0,0,.76l10.26,8.45a1.45,1.45,0,0,1,.07,2.18h0a1.45,1.45,0,0,1-1.88.09L32.84,36.54a.51.51,0,0,0-.71.08h0a.51.51,0,0,0,.08.74l8.71,6.72a1.45,1.45,0,0,1,0,2.32l-.08.06a1.45,1.45,0,0,1-1.73,0l-8.87-6.63a.51.51,0,0,0-.7.08h0a.51.51,0,0,0,.08.74l6,4.58a1.45,1.45,0,0,1,.21,2.12l-.21.24a1.45,1.45,0,0,1-1.82.29L12.06,35.32Z"/><path id="_Path_4" data-name="&lt;Path&gt;" class="cls-4" d="M12.06,35.32,33.79,47.88a1.45,1.45,0,0,0,1.82-.29l.21-.24a1.45,1.45,0,0,0-.21-2.12l-6-4.58a.51.51,0,0,1-.08-.74h0a.51.51,0,0,1,.7-.08l8.87,6.63a1.45,1.45,0,0,0,1.73,0l.08-.06,0,0L16.13,27.19Z"/><path id="_Path_5" data-name="&lt;Path&gt;" class="cls-5" d="M52.45,23.35l5.92,10.92-8.42,5.59-13.81-12-8.65,3.34a2.15,2.15,0,0,1-2.2-.4h0a2.15,2.15,0,0,1,.5-3.55l11.5-5.45a1.9,1.9,0,0,1,1.63,0L45.75,25a3.17,3.17,0,0,0,2.4.14Z"/><polygon id="_Path_6" data-name="&lt;Path&gt;" class="cls-6" points="44.38 35.01 49.95 39.86 58.37 34.27 55.21 28.45 44.38 35.01"/><rect id="_Path_7" data-name="&lt;Path&gt;" class="cls-7" x="5.55" y="25.65" width="14.86" height="6.31" transform="translate(-18.55 26.73) rotate(-61.97)"/><g id="_Group_2" data-name="&lt;Group&gt;"><polygon id="_Path_8" data-name="&lt;Path&gt;" class="cls-8" points="6.7 33.89 12.27 36.86 15.8 30.23 10.35 27.04 6.7 33.89"/><rect id="_Path_9" data-name="&lt;Path&gt;" class="cls-7" x="52.05" y="21.12" width="6.31" height="14.86" transform="translate(-6.48 36.13) rotate(-34.35)"/></g><polygon id="_Path_10" data-name="&lt;Path&gt;" class="cls-8" points="62.01 32.9 57.86 26.84 52.46 30.12 56.8 36.47 62.01 32.9"/></g></g></g></svg>