<svg xmlns="http://www.w3.org/2000/svg" viewBox="0 0 68.71 68.71"><defs><style>.cls-1{fill:#006387;}.cls-2{fill:#01556b;}.cls-3{fill:#ffedb5;}.cls-4{fill:#fee187;}.cls-5{fill:#71e2ef;}.cls-6{fill:#38c6d9;}.cls-7{fill:#477f3c;}.cls-8{fill:#2e5e24;}</style></defs><title>Asset 50_icon</title><g id="Layer_2" data-name="Layer 2"><g id="Capa_1" data-name="Capa 1"><g id="_Group_" data-name="&lt;Group&gt;"><circle id="_Path_" data-name="&lt;Path&gt;" class="cls-1" cx="34.35" cy="34.35" r="34.35"/><path id="_Path_2" data-name="&lt;Path&gt;" class="cls-2" d="M50.53,24.21l-5.83-4.75-11,10.82-.86.73-7.11-.9-5.33,4.32,3.73,14.5-2,3.31L33.19,63.3l7.33,4.86L42,67.85A34.41,34.41,0,0,0,67.34,44q.29-1.1.57-2.23l0-.12Z"/><path id="_Path_3" data-name="&lt;Path&gt;" class="cls-3" d="M50.1,24.38a1.12,1.12,0,0,0-1,1v0l-1.41,8.31.17.09a2.09,2.09,0,0,1,.84,2.57L46.9,40.82a.55.55,0,0,1-1-.42l1.83-4.49A1,1,0,0,0,46,35l-3.38,5.45a3.76,3.76,0,0,0-.57,2l.13,9.63,5.14.15-.63-2.74a4,4,0,0,1,.72-3.32l4.37-5.7a5.13,5.13,0,0,0,.92-3.66L51.33,25.23A1.12,1.12,0,0,0,50.1,24.38Z"/><g id="_Group_2" data-name="&lt;Group&gt;"><path id="_Path_4" data-name="&lt;Path&gt;" class="cls-4" d="M47.89,33.77a2.11,2.11,0,0,1,.29.22V31l-.46,2.69Z"/><path id="_Path_5" data-name="&lt;Path&gt;" class="cls-4" d="M48.18,45.17v-7.5L46.9,40.82a.55.55,0,0,1-1-.42l1.83-4.49A1,1,0,0,0,46,35l-3.38,5.45a3.76,3.76,0,0,0-.57,2l.13,9.63,5.14.15-.63-2.74a4,4,0,0,1,.72-3.32Z"/></g><path id="_Path_6" data-name="&lt;Path&gt;" class="cls-3" d="M17.86,25.23,16.54,36.87a5.13,5.13,0,0,0,.92,3.66l4.37,5.7a4,4,0,0,1,.72,3.32l-.63,2.74,5.14-.15.13-9.63a3.76,3.76,0,0,0-.57-2L23.25,35a1,1,0,0,0-1.74.89l1.83,4.49a.55.55,0,0,1-1,.42l-1.83-4.49a2.09,2.09,0,0,1,.84-2.57l.17-.09-1.41-8.31v0a1.12,1.12,0,0,0-2.2-.11Z"/><g id="_Group_3" data-name="&lt;Group&gt;"><path id="_Path_7" data-name="&lt;Path&gt;" class="cls-4" d="M21.31,33.77A2.11,2.11,0,0,0,21,34V31l.46,2.69Z"/><path id="_Path_8" data-name="&lt;Path&gt;" class="cls-4" d="M21,45.17v-7.5l1.28,3.14a.55.55,0,0,0,1-.42L21.5,35.91A1,1,0,0,1,23.25,35l3.38,5.45a3.76,3.76,0,0,1,.57,2l-.13,9.63-5.14.15.63-2.74a4,4,0,0,0-.72-3.32Z"/></g><circle id="_Path_9" data-name="&lt;Path&gt;" class="cls-5" cx="34.35" cy="26.26" r="12.38"/><path id="_Path_10" data-name="&lt;Path&gt;" class="cls-6" d="M34.35,13.88H34.3V38.63h.05a12.38,12.38,0,1,0,0-24.75Z"/><path id="_Path_11" data-name="&lt;Path&gt;" class="cls-7" d="M31.25,27.71c-2.4-.75-2.3-3.35-.45-3.85s.9-1.25,1.75-3.25-.45-1.3-1.35-3.15a4.56,4.56,0,0,1-.23-3.1,12.39,12.39,0,0,0-8.81,9.8c2.5,2.57,5.73-.72,6.29,1.35s-.2,3.05-.2,3.05a9.83,9.83,0,0,0-1.35,3.65c0,1,3,4.22,4.76,6.13q.55.12,1.13.19a2.88,2.88,0,0,1,1.31-3c2.15-1.15,2.55-5.4,2.55-5.4l-2-1.45S33.65,28.46,31.25,27.71Z"/><g id="_Group_4" data-name="&lt;Group&gt;"><path id="_Path_12" data-name="&lt;Path&gt;" class="cls-8" d="M36.66,30.11l-2-1.45-.35-.08v6.81C36.28,34.1,36.66,30.11,36.66,30.11Z"/><path id="_Path_13" data-name="&lt;Path&gt;" class="cls-8" d="M37.85,14.38c-.46.83-1.73,3.33-1.19,4.32.65,1.2.45-.4,2.1,0s2.9.9,4,.75,2.05,2.25.7,2.9,1.2,5.3,1.2,5.3l1.67,1.74a12.39,12.39,0,0,0-8.48-15Z"/></g></g></g></g></svg>