<svg xmlns="http://www.w3.org/2000/svg" viewBox="0 0 73.65 73.65"><defs><style>.cls-1{fill:#006488;}.cls-2{fill:#00556b;}.cls-3{fill:#ff7137;}.cls-4{fill:#ffa95b;}.cls-5{fill:#cc5232;}.cls-6{fill:#ffedb5;}.cls-7{fill:#fee187;}.cls-8{fill:#cdfcff;}.cls-9{fill:#00b2bc;}.cls-10{fill:#029999;}</style></defs><title>Asset 19_icon</title><g id="Layer_2" data-name="Layer 2"><g id="Capa_1" data-name="Capa 1"><g id="_Group_" data-name="&lt;Group&gt;"><circle id="_Path_" data-name="&lt;Path&gt;" class="cls-1" cx="36.83" cy="36.83" r="36.83"/><path id="_Path_2" data-name="&lt;Path&gt;" class="cls-2" d="M71.76,48.5,47.61,24.35l-9.36,10-5.74,5.08L39,45.84,32,47h0l-1.28.35-3-.12-8.3,10.06L35.74,73.63l1.09,0A36.84,36.84,0,0,0,71.76,48.5Z"/><path id="_Path_3" data-name="&lt;Path&gt;" class="cls-3" d="M34.93,22.07a6.57,6.57,0,1,1,0,13.14V22.07Z"/><path id="_Path_4" data-name="&lt;Path&gt;" class="cls-4" d="M34.93,35.21a6.57,6.57,0,1,1,0-13.14V35.21Z"/><path id="_Path_5" data-name="&lt;Path&gt;" class="cls-5" d="M34.07,35.15a6.43,6.43,0,0,0,1.74,0v-13a6.43,6.43,0,0,0-1.74,0Z"/><path id="_Path_6" data-name="&lt;Path&gt;" class="cls-6" d="M53.7,43.21A1.48,1.48,0,0,0,52,42.69h0L41.38,46.22c0,.08,0,.17,0,.26A2.76,2.76,0,0,1,38.9,49l-6.37.66a.73.73,0,0,1-.15-1.46l6.37-.66a1.3,1.3,0,0,0,0-2.59l-8.46-.55a5,5,0,0,0-2.73.61L16.37,51.19l3,6.09,2.8-2.44a5.25,5.25,0,0,1,4.32-1.23l9.36,1.56A6.78,6.78,0,0,0,40.72,54l12.75-8.78A1.48,1.48,0,0,0,53.7,43.21Z"/><g id="_Group_2" data-name="&lt;Group&gt;"><path id="_Path_7" data-name="&lt;Path&gt;" class="cls-7" d="M38.75,47.58a1.3,1.3,0,0,0,0-2.59l-3.49-.23V48Z"/><path id="_Path_8" data-name="&lt;Path&gt;" class="cls-7" d="M53.7,43.21A1.48,1.48,0,0,0,52,42.69h0L41.38,46.22c0,.08,0,.17,0,.26A2.76,2.76,0,0,1,38.9,49l-3.69.38v5.64l.66.11A6.78,6.78,0,0,0,40.72,54l12.75-8.78A1.48,1.48,0,0,0,53.7,43.21Z"/></g><path id="_Path_9" data-name="&lt;Path&gt;" class="cls-8" d="M32.51,39.41h0a4.38,4.38,0,0,1,0-6.19l8.89-8.89a4.38,4.38,0,0,1,6.19,0h0a4.38,4.38,0,0,1,0,6.19L38.7,39.41A4.38,4.38,0,0,1,32.51,39.41Z"/><path id="_Path_10" data-name="&lt;Path&gt;" class="cls-9" d="M47.61,24.35,32.53,39.43a4.38,4.38,0,0,0,6.17,0l8.89-8.89A4.38,4.38,0,0,0,47.61,24.35Z"/><path id="_Path_11" data-name="&lt;Path&gt;" class="cls-9" d="M41.4,24.33l-4.5,4.5L43.09,35l4.5-4.5a4.38,4.38,0,0,0,0-6.19h0A4.38,4.38,0,0,0,41.4,24.33Z"/><path id="_Path_12" data-name="&lt;Path&gt;" class="cls-10" d="M47.61,24.35,40,31.94,43.09,35l4.5-4.5A4.38,4.38,0,0,0,47.61,24.35Z"/></g></g></g></svg>