<svg xmlns="http://www.w3.org/2000/svg" viewBox="0 0 20.48 20.48"><defs><style>.cls-1{fill:#fff;}.cls-2{fill:#1d1d1d;}</style></defs><title>instagram</title><g id="Layer_2" data-name="Layer 2"><g id="Capa_1" data-name="Capa 1"><g id="_Group_" data-name="&lt;Group&gt;"><circle id="_Path_" data-name="&lt;Path&gt;" class="cls-1" cx="10.24" cy="10.24" r="10.24"/><path id="_Path_2" data-name="&lt;Path&gt;" class="cls-1" d="M15,5.32a17.23,17.23,0,0,1-3.78,0c-1.79-.14-4.41-1-5.38.69-1.55,2.65-.79,6-.42,9l5.39,5.39a10.24,10.24,0,0,0,9.67-9.67Z"/><g id="_Group_2" data-name="&lt;Group&gt;"><path id="_Compound_Path_" data-name="&lt;Compound Path&gt;" class="cls-2" d="M12.61,4.38H7.87A3.5,3.5,0,0,0,4.38,7.87v4.74A3.5,3.5,0,0,0,7.87,16.1h4.74a3.5,3.5,0,0,0,3.49-3.49V7.87a3.5,3.5,0,0,0-3.49-3.49Zm2.31,8.23a2.31,2.31,0,0,1-2.31,2.31H7.87a2.31,2.31,0,0,1-2.31-2.31V7.87A2.31,2.31,0,0,1,7.87,5.56h4.74a2.31,2.31,0,0,1,2.31,2.31v4.74Z"/><path id="_Compound_Path_2" data-name="&lt;Compound Path&gt;" class="cls-2" d="M10.24,7.21a3,3,0,1,0,3,3,3,3,0,0,0-3-3Zm0,4.88a1.85,1.85,0,1,1,1.85-1.85,1.85,1.85,0,0,1-1.85,1.85Z"/></g><g id="_Group_3" data-name="&lt;Group&gt;"><path id="_Path_3" data-name="&lt;Path&gt;" class="cls-2" d="M14,7.23a.73.73,0,1,1-.73-.73.73.73,0,0,1,.73.73Z"/><path id="_Path_4" data-name="&lt;Path&gt;" class="cls-2" d="M12.61,4.38H10.21V5.56h2.39a2.31,2.31,0,0,1,2.31,2.31v4.74a2.31,2.31,0,0,1-2.31,2.31H10.21V16.1h2.39a3.5,3.5,0,0,0,3.49-3.49V7.87A3.5,3.5,0,0,0,12.61,4.38Z"/><path id="_Path_5" data-name="&lt;Path&gt;" class="cls-2" d="M10.24,7.21h0V8.39h0a1.85,1.85,0,0,1,0,3.7h0v1.18h0a3,3,0,0,0,0-6.06Z"/></g></g></g></g></svg>