<svg xmlns="http://www.w3.org/2000/svg" viewBox="0 0 60.08 60.08"><defs><style>.cls-1{fill:#e3fcff;}.cls-2{fill:#00b0bc;}.cls-3{fill:#fff;}.cls-4{fill:#c7c5cb;}.cls-5{fill:#dbdadc;}.cls-6{fill:#f8b44c;}.cls-7{fill:#da9a45;}.cls-8{fill:#f3a100;}.cls-9{fill:#d28702;}</style></defs><title>Asset 33_icon</title><g id="Layer_2" data-name="Layer 2"><g id="Capa_1" data-name="Capa 1"><g id="_Group_" data-name="&lt;Group&gt;"><g id="_Group_2" data-name="&lt;Group&gt;"><circle id="_Path_" data-name="&lt;Path&gt;" class="cls-1" cx="30.04" cy="30.04" r="30.04"/><path id="_Path_2" data-name="&lt;Path&gt;" class="cls-2" d="M60.08,30a30,30,0,0,0-2.36-11.7L47.06,7.68H34.93L33.3,5.59H31.22V7.68H18.12V9L20,10.67a44.56,44.56,0,0,0-.85,8,66.42,66.42,0,0,0,1.35,11.29L24.54,34h-3.1l-4.9-5H3.8v6.33l5.77,5.76v2.11q0,.15,0,.29v.09c0,.07,0,.13,0,.2v.4l0,.18v.1l0,.18v.1l0,.19,0,.09,0,.2,0,.08,0,.21v.06l.06.24v0a10.86,10.86,0,0,0,3.27,5.39L20.4,58.5A30.06,30.06,0,0,0,60.08,30Z"/><rect id="_Path_3" data-name="&lt;Path&gt;" class="cls-3" x="31.22" y="5.59" width="2.08" height="28.74"/><rect id="_Path_4" data-name="&lt;Path&gt;" class="cls-4" x="32.25" y="5.59" width="1.04" height="28.74"/><path id="_Path_5" data-name="&lt;Path&gt;" class="cls-3" d="M46.07,29.91H20.46a66.42,66.42,0,0,1-1.35-11.29A49,49,0,0,1,20.46,8.36H46.07a53.06,53.06,0,0,0-1.35,10.78A53.07,53.07,0,0,0,46.07,29.91Z"/><path id="_Path_6" data-name="&lt;Path&gt;" class="cls-5" d="M44.72,19.13a53.06,53.06,0,0,0,1.35,10.77H32.25V8.36H46.07A53.06,53.06,0,0,0,44.72,19.13Z"/><path id="_Path_7" data-name="&lt;Path&gt;" class="cls-6" d="M16.54,34V29H3.8v6.33H9.57v7.88A10.85,10.85,0,0,0,20.39,54.05H40A10.85,10.85,0,0,0,50.82,43.23V34Z"/><g id="_Group_3" data-name="&lt;Group&gt;"><path id="_Path_8" data-name="&lt;Path&gt;" class="cls-7" d="M50.82,34v9.25A10.85,10.85,0,0,1,40,54.05H32.25V34Z"/><path id="_Path_9" data-name="&lt;Path&gt;" class="cls-8" d="M50.82,41.12H9.57v2.11a10.72,10.72,0,0,0,1,4.53H49.82a10.72,10.72,0,0,0,1-4.53Z"/></g><path id="_Path_10" data-name="&lt;Path&gt;" class="cls-9" d="M50.82,41.12v2.11a10.71,10.71,0,0,1-1,4.53H32.25V41.12Z"/><g id="_Group_4" data-name="&lt;Group&gt;"><circle id="_Path_11" data-name="&lt;Path&gt;" class="cls-3" cx="20.21" cy="37.67" r="1.82"/><circle id="_Path_12" data-name="&lt;Path&gt;" class="cls-3" cx="28.24" cy="37.67" r="1.82"/></g><g id="_Group_5" data-name="&lt;Group&gt;"><circle id="_Path_13" data-name="&lt;Path&gt;" class="cls-5" cx="36.27" cy="37.67" r="1.82"/><circle id="_Path_14" data-name="&lt;Path&gt;" class="cls-5" cx="44.31" cy="37.67" r="1.82"/></g><rect id="_Path_15" data-name="&lt;Path&gt;" class="cls-6" x="18.12" y="7.68" width="28.94" height="1.35"/><rect id="_Path_16" data-name="&lt;Path&gt;" class="cls-7" x="32.25" y="7.68" width="14.8" height="1.35"/><g id="_Group_6" data-name="&lt;Group&gt;"><path id="_Path_17" data-name="&lt;Path&gt;" class="cls-3" d="M23.73,18.41a1.11,1.11,0,0,1,1-.71,1,1,0,0,1-.29-1.13,1.12,1.12,0,0,1,1.42-.66,1.06,1.06,0,0,1,.68,1.36l-.06.14.69.23q0,.11,0,.21a5.09,5.09,0,0,0,.26,1.62L25.87,19a1.16,1.16,0,0,1,0,.15,1.13,1.13,0,0,1-1.42.66A1.06,1.06,0,0,1,23.73,18.41Z"/><path id="_Path_18" data-name="&lt;Path&gt;" class="cls-3" d="M28.45,22.38l-2,.67.06.14a1.06,1.06,0,0,1-.68,1.36,1.12,1.12,0,0,1-1.42-.66,1,1,0,0,1,.29-1.13,1.11,1.11,0,0,1-1-.71,1.06,1.06,0,0,1,.68-1.36,1.12,1.12,0,0,1,1.42.66,1.16,1.16,0,0,1,0,.15l1.3-.43A2,2,0,0,0,28.45,22.38Z"/><path id="_Path_19" data-name="&lt;Path&gt;" class="cls-3" d="M40.73,21.22a1,1,0,0,1,.05.82,1.11,1.11,0,0,1-1,.71,1,1,0,0,1,.29,1.13,1.06,1.06,0,0,1-.35.47l-.14.09a1.15,1.15,0,0,1-.7.14l-.14,0-.09,0A1.06,1.06,0,0,1,38,23.19a1,1,0,0,1,.06-.14l-2-.67a2,2,0,0,0,1.28-1.32l1.3.43a1.09,1.09,0,0,1,1.46-.8,1.1,1.1,0,0,1,.44.27l.06.06.05.06Z"/><path id="_Path_20" data-name="&lt;Path&gt;" class="cls-3" d="M38.64,19l-1.51.51h0a5.08,5.08,0,0,0,.26-1.62q0-.11,0-.21l.69-.23a1,1,0,0,1-.06-.14,1.06,1.06,0,0,1,.68-1.36,1.15,1.15,0,0,1,.86.05l.15.08a1.06,1.06,0,0,1,.19.16l.06.06.09.14a1.11,1.11,0,0,1,.07.16,1,1,0,0,1-.29,1.13,1.11,1.11,0,0,1,1,.71,1,1,0,0,1-.05.82l-.09.14-.05.06-.06.06a1.1,1.1,0,0,1-.44.27,1.14,1.14,0,0,1-1.25-.36l-.09-.14a1,1,0,0,1-.11-.3Z"/></g><g id="_Group_7" data-name="&lt;Group&gt;"><path id="_Path_21" data-name="&lt;Path&gt;" class="cls-5" d="M40.73,21.22a1,1,0,0,1,.05.82,1.11,1.11,0,0,1-1,.71,1,1,0,0,1,.29,1.13,1.06,1.06,0,0,1-.35.47l-.14.09a1.15,1.15,0,0,1-.61.15h-.09l-.14,0-.09,0A1.06,1.06,0,0,1,38,23.19a1,1,0,0,1,.06-.14l-2-.67a2,2,0,0,0,1.28-1.32l1.3.43a1.09,1.09,0,0,1,1.46-.8,1.1,1.1,0,0,1,.44.27l.06.06.05.06Z"/><path id="_Path_22" data-name="&lt;Path&gt;" class="cls-5" d="M37.13,19.47a5.08,5.08,0,0,0,.26-1.62q0-.11,0-.21l.69-.23a1,1,0,0,1-.06-.14,1.06,1.06,0,0,1,.68-1.36,1.15,1.15,0,0,1,.86.05l.15.08a1.12,1.12,0,0,1,.19.16l.06.06.09.14a1.11,1.11,0,0,1,.07.16,1,1,0,0,1-.29,1.13,1.11,1.11,0,0,1,1,.71,1,1,0,0,1-.05.82l-.09.14-.05.06-.06.06a1.1,1.1,0,0,1-.44.27,1.14,1.14,0,0,1-1.25-.36l-.09-.14a1.11,1.11,0,0,1-.07-.16,1.12,1.12,0,0,1,0-.15h0Z"/></g><path id="_Compound_Path_" data-name="&lt;Compound Path&gt;" class="cls-3" d="M36.15,19.56a4.23,4.23,0,1,0-7.77,0,1.21,1.21,0,0,0,1.54,1.85,4.24,4.24,0,0,0,.48.27V23a.58.58,0,0,0,.57.57H31V22h.55v1.54H32V22h.55v1.54h.4V22h.55v1.54h.07a.58.58,0,0,0,.57-.57V21.68a4.24,4.24,0,0,0,.48-.27,1.21,1.21,0,0,0,1.54-1.85Zm-5.37-1h-.42a.81.81,0,0,1-.81-.81v-.42a.81.81,0,0,1,.81-.81h.42a.81.81,0,0,1,.81.81v.42A.81.81,0,0,1,30.78,18.6Zm2,1.67h-1a.32.32,0,0,1-.27-.47l.25-.44.25-.44a.32.32,0,0,1,.55,0l.25.44.25.44A.32.32,0,0,1,32.77,20.27ZM35,17.79a.81.81,0,0,1-.81.81h-.42a.81.81,0,0,1-.81-.81v-.42a.81.81,0,0,1,.81-.81h.42a.81.81,0,0,1,.81.81Z"/><path id="_Compound_Path_2" data-name="&lt;Compound Path&gt;" class="cls-5" d="M36.15,19.56a4.23,4.23,0,0,0-3.89-5.91v5.1a.31.31,0,0,1,.27.16l.25.44.26.44a.32.32,0,0,1-.27.47h-.51V22h.28v1.54h.4V22h.55v1.54h.07a.58.58,0,0,0,.57-.57V21.68a4.16,4.16,0,0,0,.48-.27,1.21,1.21,0,0,0,1.54-1.85ZM35,17.79a.81.81,0,0,1-.81.81h-.42a.81.81,0,0,1-.81-.81v-.42a.81.81,0,0,1,.81-.81h.42a.81.81,0,0,1,.81.81Z"/></g></g></g></g></svg>