<svg xmlns="http://www.w3.org/2000/svg" viewBox="0 0 20.48 20.48"><defs><style>.cls-1{fill:#fff;}.cls-2,.cls-3{fill:#1d1d1d;}.cls-3{stroke:#fff;stroke-miterlimit:10;}</style></defs><title>mail</title><g id="Layer_2" data-name="Layer 2"><g id="Capa_1" data-name="Capa 1"><g id="_Group_" data-name="&lt;Group&gt;"><circle id="_Path_" data-name="&lt;Path&gt;" class="cls-1" cx="10.24" cy="10.24" r="10.24"/><path id="_Path_2" data-name="&lt;Path&gt;" class="cls-1" d="M20.43,11.29,15.76,6.62l-5.58,2.8-5.4,4.5,6.5,6.5A10.24,10.24,0,0,0,20.43,11.29Z"/><path id="_Path_3" data-name="&lt;Path&gt;" class="cls-2" d="M15,14.22H5.44a.88.88,0,0,1-.88-.88V7.14a.88.88,0,0,1,.88-.88H15a.88.88,0,0,1,.88.88v6.19A.88.88,0,0,1,15,14.22Z"/><path id="_Path_4" data-name="&lt;Path&gt;" class="cls-2" d="M15,6.26H10.25v8H15a.88.88,0,0,0,.88-.88V7.14A.88.88,0,0,0,15,6.26Z"/><path id="_Path_5" data-name="&lt;Path&gt;" class="cls-3" d="M10.24,10.81,15.93,7.4V7.14A.88.88,0,0,0,15,6.26H5.44a.88.88,0,0,0-.88.88V7.4Z"/></g></g></g></svg>