<svg xmlns="http://www.w3.org/2000/svg" viewBox="0 0 65.53 65.53"><defs><style>.cls-1{fill:#006387;}.cls-2{fill:#01556b;}.cls-3{fill:#fff5cb;}.cls-4{fill:#ffed97;}.cls-5{fill:#ffe047;}.cls-6{fill:#ffe670;}.cls-7{fill:#ffd400;}.cls-8{fill:#e67500;}.cls-9{fill:#c06200;}.cls-10{fill:#ff8900;}.cls-11{fill:#ff0335;}.cls-12{fill:#008c4a;}</style></defs><title>Map_icon</title><g id="Layer_2" data-name="Layer 2"><g id="Capa_1" data-name="Capa 1"><g id="_Group_" data-name="&lt;Group&gt;"><circle id="_Path_" data-name="&lt;Path&gt;" class="cls-1" cx="32.76" cy="32.76" r="32.76"/><path id="_Path_2" data-name="&lt;Path&gt;" class="cls-2" d="M65.53,32.76a32.68,32.68,0,0,0-2.22-11.88l-6.23-6.23H46.83l-.45,1.92-1.87-1.92H8.45v4.63l2.36,2.48-2.36.51V50.87L20.89,63.31A32.78,32.78,0,0,0,65.53,32.76Z"/><polygon id="_Path_3" data-name="&lt;Path&gt;" class="cls-3" points="54.72 33.61 49.78 34.45 54.72 35.6 57.08 36.15 57.08 50.87 19.12 50.87 18.76 48.75 18 44.35 16.98 48.75 16.49 50.87 8.45 50.87 8.45 22.28 10.81 21.77 14.32 21.01 10.81 19.98 8.45 19.29 8.45 14.66 44.51 14.66 44.87 16.77 45.49 20.4 46.34 16.77 46.83 14.66 57.08 14.66 57.08 33.2 54.72 33.61"/><g id="_Group_2" data-name="&lt;Group&gt;"><polygon id="_Path_4" data-name="&lt;Path&gt;" class="cls-4" points="54.72 33.61 49.78 34.45 54.72 35.6 57.08 36.15 57.08 50.87 32.76 50.87 32.76 14.66 44.51 14.66 44.87 16.77 45.5 20.4 46.34 16.77 46.83 14.66 57.08 14.66 57.08 33.2 54.72 33.61"/><polygon id="_Path_5" data-name="&lt;Path&gt;" class="cls-4" points="54.72 33.61 49.78 34.45 54.72 35.6 54.72 48.75 18.76 48.75 18 44.35 16.98 48.75 10.81 48.75 10.81 21.77 14.32 21.01 10.81 19.98 10.81 16.77 44.87 16.77 45.49 20.4 46.34 16.77 54.72 16.77 54.72 33.61"/></g><polygon id="_Path_6" data-name="&lt;Path&gt;" class="cls-5" points="54.72 33.61 49.78 34.45 54.72 35.6 54.72 48.75 32.76 48.75 32.76 16.77 44.87 16.77 45.5 20.4 46.34 16.77 54.72 16.77 54.72 33.61"/><rect id="_Path_7" data-name="&lt;Path&gt;" class="cls-6" x="24.39" y="16.77" width="16.74" height="31.98"/><rect id="_Path_8" data-name="&lt;Path&gt;" class="cls-7" x="32.76" y="16.77" width="8.37" height="31.98"/><path id="_Path_9" data-name="&lt;Path&gt;" class="cls-8" d="M17.9,29.79l-1.6-.28c.16-.88.32-1.44.32-1.47l1.56.45-.78-.22.78.22S18,29,17.9,29.79Z"/><g id="_Group_3" data-name="&lt;Group&gt;"><path id="_Path_10" data-name="&lt;Path&gt;" class="cls-9" d="M41.68,45.66l-.24-1.6a5.46,5.46,0,0,0,2.23-.82l.9,1.35A7.07,7.07,0,0,1,41.68,45.66Z"/><path id="_Path_11" data-name="&lt;Path&gt;" class="cls-9" d="M38.7,45.63a12.65,12.65,0,0,1-2.82-.78l.61-1.5a11,11,0,0,0,2.46.68Z"/></g><path id="_Path_12" data-name="&lt;Path&gt;" class="cls-8" d="M33.31,43.47a12.33,12.33,0,0,1-2.21-1.93l1.21-1.08a10.71,10.71,0,0,0,1.92,1.68Z"/><g id="_Group_4" data-name="&lt;Group&gt;"><path id="_Path_13" data-name="&lt;Path&gt;" class="cls-9" d="M34.22,42.13a10.94,10.94,0,0,1-1.46-1.2v2.14l.54.4Z"/><path id="_Path_14" data-name="&lt;Path&gt;" class="cls-9" d="M46.72,42.41l-1.35-.89a5.1,5.1,0,0,0,.82-2.21l1.61.19A6.71,6.71,0,0,1,46.72,42.41Z"/></g><g id="_Group_5" data-name="&lt;Group&gt;"><path id="_Path_15" data-name="&lt;Path&gt;" class="cls-8" d="M19.9,40.15a3.7,3.7,0,0,1-1.62-.93,6.3,6.3,0,0,1-.93-1.12l1.36-.88a4.69,4.69,0,0,0,.69.83,2.07,2.07,0,0,0,.91.53Z"/><path id="_Path_16" data-name="&lt;Path&gt;" class="cls-8" d="M23.08,39.81l-.56-1.52c.51-.19,1.05-.44,1.58-.68l.9-.41.64,1.49-.87.39C24.22,39.34,23.65,39.6,23.08,39.81Z"/><path id="_Path_17" data-name="&lt;Path&gt;" class="cls-8" d="M29.47,39.17a1.86,1.86,0,0,0-1.55-1.07L28,36.48a3.5,3.5,0,0,1,2.84,1.83Z"/></g><path id="_Path_18" data-name="&lt;Path&gt;" class="cls-9" d="M45.93,37a6.86,6.86,0,0,0-1.16-2.15l1.27-1a8.47,8.47,0,0,1,1.43,2.66Z"/><path id="_Path_19" data-name="&lt;Path&gt;" class="cls-8" d="M16.25,35.28A12.83,12.83,0,0,1,16,32.73q0-.18,0-.36l1.62,0q0,.16,0,.33A11.22,11.22,0,0,0,17.84,35Z"/><g id="_Group_6" data-name="&lt;Group&gt;"><path id="_Path_20" data-name="&lt;Path&gt;" class="cls-9" d="M42.95,33.14a7.25,7.25,0,0,0-2.26-1l.38-1.58a8.86,8.86,0,0,1,2.76,1.19Z"/><path id="_Path_21" data-name="&lt;Path&gt;" class="cls-9" d="M38,31.87a4.21,4.21,0,0,1-2.76-1.81l1.35-.9a2.62,2.62,0,0,0,1.72,1.11Z"/><path id="_Path_22" data-name="&lt;Path&gt;" class="cls-9" d="M36.15,27.1l-1.61-.21A5.24,5.24,0,0,1,35.9,24l1.19,1.1A3.62,3.62,0,0,0,36.15,27.1Z"/><path id="_Path_23" data-name="&lt;Path&gt;" class="cls-9" d="M39,23.91l-.47-1.55a8.51,8.51,0,0,1,3-.3l-.11,1.62A6.91,6.91,0,0,0,39,23.91Z"/><path id="_Path_24" data-name="&lt;Path&gt;" class="cls-9" d="M45.3,24.59c-.43-.17-.87-.32-1.28-.44l.46-1.55c.46.14.93.3,1.4.48Z"/></g><path id="_Path_25" data-name="&lt;Path&gt;" class="cls-8" d="M22.49,26.31H18.07v-4.9a2.05,2.05,0,0,1,2-2h.33a2.05,2.05,0,0,1,2,2Z"/><path id="_Path_26" data-name="&lt;Path&gt;" class="cls-10" d="M19.15,26.31H15.91V23.85a1.54,1.54,0,0,1,1.54-1.54h.17a1.54,1.54,0,0,1,1.54,1.54v2.46Z"/><polygon id="_Path_27" data-name="&lt;Path&gt;" class="cls-11" points="52.52 22.19 51.34 21.01 49.45 22.9 47.55 21.01 46.37 22.19 48.27 24.08 46.37 25.98 47.55 27.16 49.45 25.27 51.34 27.16 52.52 25.98 50.63 24.08 52.52 22.19"/><path id="_Path_28" data-name="&lt;Path&gt;" class="cls-12" d="M41.3,41.58s-5-3-3.33-4.48c1.43-1.27,2.45,1.62,2.45,1.62s-.77-3.41.6-3.64,2.08,1.41,1.5,3.81c0,0,1.11-1.76,2.39-1.42S44.88,40.18,41.3,41.58Z"/></g></g></g></svg>