<svg xmlns="http://www.w3.org/2000/svg" viewBox="0 0 73.66 73.66"><defs><style>.cls-1{fill:#e3fcff;}.cls-2{fill:#00b0bc;}.cls-3{fill:#ed2600;}.cls-4{fill:#ff3200;}.cls-5{fill:#ffc373;}.cls-6{fill:#ffa920;}.cls-7{fill:#ffdaa8;}.cls-8{fill:#ffa81f;}.cls-9{fill:#00abe9;}.cls-10{fill:#0081d0;}.cls-11{fill:#ff4f19;}.cls-12{fill:#ffce00;}.cls-13{fill:#fff;}.cls-14{fill:#d8d8da;}</style></defs><title>pirate_icon</title><g id="Layer_2" data-name="Layer 2"><g id="Capa_1" data-name="Capa 1"><g id="_Group_" data-name="&lt;Group&gt;"><circle id="_Path_" data-name="&lt;Path&gt;" class="cls-1" cx="36.83" cy="36.83" r="36.83"/><path id="_Path_2" data-name="&lt;Path&gt;" class="cls-2" d="M73.66,36.83c0-.58,0-1.15,0-1.72L49.23,10.72A15.49,15.49,0,0,0,37.76,5.66H35.87A15.54,15.54,0,0,0,20.92,17a12,12,0,0,0-6.29-2.82,12.44,12.44,0,0,0,1.16,6.19,12.53,12.53,0,0,0-5.67,2.41l7.33,7.36.24,2.23a3.65,3.65,0,0,0,1.45,2.53v2.59a1,1,0,0,0,.28.68l11,11v4H23.17l-.31,0h-.13l-.12,0h-.09l-.2,0-.1,0h0l-.12,0H22l-.15,0-.15,0A11,11,0,0,0,13.16,64v1l.08.07.32.27.27.22.32.25h0a36.83,36.83,0,0,0,59.5-29Z"/><path id="_Path_3" data-name="&lt;Path&gt;" class="cls-3" d="M10.13,22.74S16.56,30.53,22.68,24C18,16.43,10.13,22.74,10.13,22.74Z"/><path id="_Path_4" data-name="&lt;Path&gt;" class="cls-4" d="M14.63,14.14s-1,10.05,8,9.79C24.67,15.25,14.63,14.14,14.63,14.14Z"/><rect id="_Path_5" data-name="&lt;Path&gt;" class="cls-5" x="30.42" y="46.73" width="12.81" height="16.17"/><rect id="_Path_6" data-name="&lt;Path&gt;" class="cls-6" x="36.83" y="46.73" width="6.41" height="16.17"/><g id="_Group_2" data-name="&lt;Group&gt;"><path id="_Path_7" data-name="&lt;Path&gt;" class="cls-7" d="M53.32,25.4A17,17,0,0,0,36.83,9.51,17,17,0,0,0,20.34,25.4a3.66,3.66,0,0,0-3,4l.32,2.95a3.67,3.67,0,0,0,4,3.24l.34,0c4.09,10.65,10.69,13.39,14.77,14,4.07-.62,10.67-3.36,14.77-14l.34,0a3.67,3.67,0,0,0,4-3.24l.32-2.95A3.67,3.67,0,0,0,53.32,25.4Z"/><path id="_Path_8" data-name="&lt;Path&gt;" class="cls-7" d="M56.29,29.38,56,32.33a3.67,3.67,0,0,1-4,3.24l-.35,0c-4.09,10.65-10.69,13.39-14.76,14V12.78H46.4A16.77,16.77,0,0,1,53.32,25.4,3.67,3.67,0,0,1,56.29,29.38Z"/></g><g id="_Group_3" data-name="&lt;Group&gt;"><path id="_Path_9" data-name="&lt;Path&gt;" class="cls-5" d="M56.29,29.38,56,32.33a3.67,3.67,0,0,1-4,3.24l-.35,0c-4.09,10.65-10.69,13.39-14.76,14v-40A17,17,0,0,1,53.29,25c0,.14,0,.28,0,.41A3.67,3.67,0,0,1,56.29,29.38Z"/><rect id="_Path_10" data-name="&lt;Path&gt;" class="cls-5" x="25.82" y="28.55" width="8.51" height="3.69"/></g><polygon id="_Path_11" data-name="&lt;Path&gt;" class="cls-8" points="36.83 28.55 36.83 40.26 40.51 40.26 40.51 32.24 48.54 32.24 48.54 28.55 36.83 28.55"/><path id="_Path_12" data-name="&lt;Path&gt;" class="cls-7" d="M60.5,64v1a36.82,36.82,0,0,1-8.56,5.38l-.59.26a36.93,36.93,0,0,1-29,0l-.59-.26A36.82,36.82,0,0,1,13.16,65V64a11,11,0,0,1,8.56-10.66l.15,0,.15,0h.06l.12,0h0l.1,0,.2,0h.09l.12,0h.13l.31,0H50.49l.31,0h.13l.12,0h.09l.31,0h0l.12,0,.19,0,.11,0h.06A11,11,0,0,1,60.5,64Z"/><path id="_Path_13" data-name="&lt;Path&gt;" class="cls-5" d="M60.5,64v1a36.82,36.82,0,0,1-8.56,5.38l-.59.26a36.7,36.7,0,0,1-14.52,3V53.08H50.49l.31,0h.13l.12,0h.09l.31,0h0l.12,0,.19,0,.11,0h.06A11,11,0,0,1,60.5,64Z"/><g id="_Group_4" data-name="&lt;Group&gt;"><path id="_Path_14" data-name="&lt;Path&gt;" class="cls-9" d="M51.94,53.35V70.43l-.59.26a36.93,36.93,0,0,1-29,0l-.59-.26V53.35l.15,0,.15,0,.3-.05.2,0h.09l.18,0h.06l.31,0h7.25a6.41,6.41,0,1,0,12.81,0h7.35l.17,0h.37l.2,0,.13,0,.2,0,.09,0Z"/><path id="_Path_15" data-name="&lt;Path&gt;" class="cls-9" d="M51.94,53.34V70.43l-.59.26a36.93,36.93,0,0,1-29,0l-.59-.26V53.34l.15,0,.15,0h.06l.12,0h0l.1,0,.2,0h.09l.12,0h.13l.31,0h7.25a6.41,6.41,0,1,0,12.81,0h7.35l.17,0h.16l.12,0h.09l.31,0h0l.12,0,.19,0,.11,0Z"/></g><path id="_Path_16" data-name="&lt;Path&gt;" class="cls-10" d="M51.94,53.35V70.43l-.59.26a36.7,36.7,0,0,1-14.52,3V59.49a6.41,6.41,0,0,0,6.41-6.41h6.94l.41,0,.17,0,.18,0h0l.17,0h0l.2,0,.13,0,.2,0,.09,0,.14,0Z"/><path id="_Path_17" data-name="&lt;Path&gt;" class="cls-11" d="M37.76,5.66H35.87A15.53,15.53,0,0,0,20.34,21.19V25.4h33V21.19A15.53,15.53,0,0,0,37.76,5.66Z"/><path id="_Path_18" data-name="&lt;Path&gt;" class="cls-4" d="M53.29,21.19A15.53,15.53,0,0,0,37.76,5.66h-.93V25.4H53.29Z"/><path id="_Path_19" data-name="&lt;Path&gt;" class="cls-12" d="M20.1,38.41h0a1,1,0,0,1-1-1V33.91a1,1,0,0,1,1-1h0a1,1,0,0,1,1,1v3.54A1,1,0,0,1,20.1,38.41Z"/><g id="_Group_5" data-name="&lt;Group&gt;"><path id="_Path_20" data-name="&lt;Path&gt;" class="cls-13" d="M30.93,55.58h-9.2v3.31h12.4A6.43,6.43,0,0,1,30.93,55.58Z"/><path id="_Path_21" data-name="&lt;Path&gt;" class="cls-13" d="M39.54,58.89h12.4V55.58h-9.2A6.43,6.43,0,0,1,39.54,58.89Z"/><rect id="_Path_22" data-name="&lt;Path&gt;" class="cls-13" x="21.72" y="63.13" width="30.21" height="3.31"/><path id="_Path_23" data-name="&lt;Path&gt;" class="cls-13" d="M51.35,70.69a36.93,36.93,0,0,1-29,0Z"/></g><g id="_Group_6" data-name="&lt;Group&gt;"><path id="_Path_24" data-name="&lt;Path&gt;" class="cls-14" d="M42.61,55.85l-.06.11-.08.16-.07.13-.08.13-.08.13-.08.12-.1.14-.07.11-.11.14-.07.09-.12.14-.07.08-.13.14-.07.07-.15.14-.06.06L41,57.9,41,58l-.17.14-.05,0-.19.14,0,0-.2.14,0,0-.22.13,0,0-.23.13h0l-.25.13h12.4V55.58h-9.2Z"/><rect id="_Path_25" data-name="&lt;Path&gt;" class="cls-14" x="36.83" y="63.13" width="15.11" height="3.31"/><path id="_Path_26" data-name="&lt;Path&gt;" class="cls-14" d="M51.35,70.69a36.7,36.7,0,0,1-14.52,3v-3Z"/></g></g></g></g></svg>