<svg xmlns="http://www.w3.org/2000/svg" xmlns:xlink="http://www.w3.org/1999/xlink" viewBox="0 0 306.41 164.79"><defs><style>.cls-1,.cls-2{fill:none;}.cls-2{stroke:#eca859;stroke-miterlimit:10;stroke-width:3px;}.cls-3{fill:#e3fcff;}.cls-4{fill:#00b0bc;}.cls-5{fill:#ffd05d;}.cls-6{fill:#f8b44c;}.cls-7{fill:#f3a100;}.cls-8{fill:#b87850;}.cls-9{fill:#925635;}.cls-10{fill:#077c9f;}.cls-11{fill:#046286;}.cls-12,.cls-33,.cls-36,.cls-38,.cls-42{fill:#fff;}.cls-13{fill:#cfe5f6;}.cls-14{fill:#dca758;}.cls-15{fill:#db6f2d;}.cls-16{fill:#fd8469;}.cls-17{fill:#fc6f58;}.cls-18{fill:#f1543f;}.cls-19{fill:#f4e3c3;}.cls-20{fill:#f2c59e;}.cls-21{fill:#ffd15d;}.cls-22{fill:#f9b54c;}.cls-23{clip-path:url(#clip-path);}.cls-24{fill:#076b82;}.cls-25{fill:#05536b;}.cls-26{fill:#324a5e;}.cls-27{fill:#2b3b4e;}.cls-28{fill:#4cdbc4;}.cls-29{fill:#c7c5cb;}.cls-30{fill:#dbdadc;}.cls-31{fill:#da9a45;}.cls-32{fill:#d28702;}.cls-33,.cls-36{font-size:7.81px;}.cls-33,.cls-36,.cls-38,.cls-42{font-family:-apple-system, BlinkMacSystemFont, "Segoe UI", "BentonSans",
  Helvetica, Arial, sans-serif;}.cls-33{letter-spacing:0.15em;}.cls-34{letter-spacing:0.07em;}.cls-35,.cls-36{letter-spacing:0.15em;}.cls-37{letter-spacing:0.12em;}.cls-38,.cls-42{font-size:9px;}.cls-38{letter-spacing:0.15em;}.cls-39{letter-spacing:0.11em;}.cls-40,.cls-42{letter-spacing:0.15em;}.cls-41{letter-spacing:0.07em;}.cls-43{letter-spacing:0.16em;}.cls-44{letter-spacing:0.15em;}</style><clipPath id="clip-path"><circle id="_Clipping_Path_" data-name="&lt;Clipping Path&gt;" class="cls-1" cx="223.02" cy="20.36" r="20.36"/></clipPath></defs><title>Pirate_Economy</title><g id="Layer_2" data-name="Layer 2"><g id="Capa_1" data-name="Capa 1"><g id="_Group_" data-name="&lt;Group&gt;"><line id="_Line_" data-name="&lt;Line&gt;" class="cls-2" x1="36.85" y1="80.84" x2="214.02" y2="80.84"/><polyline id="_Path_" data-name="&lt;Path&gt;" class="cls-2" points="214.02 146.3 167.89 146.3 167.89 19.75 214.02 19.75"/><g id="_Group_2" data-name="&lt;Group&gt;"><circle id="_Path_2" data-name="&lt;Path&gt;" class="cls-3" cx="20.36" cy="80.84" r="20.36"/><path id="_Path_3" data-name="&lt;Path&gt;" class="cls-4" d="M40.71,80.84c0-.25,0-.49,0-.73l-7.9-7.9L20.54,83.76l-8.62-8.62-4,1.58,9.75,9.75-.31.29L9,90.3l10.89,10.89h.42A20.36,20.36,0,0,0,40.71,80.84Z"/><rect id="_Path_4" data-name="&lt;Path&gt;" class="cls-5" x="9.05" y="74.46" width="22.62" height="15.83"/><g id="_Group_3" data-name="&lt;Group&gt;"><rect id="_Path_5" data-name="&lt;Path&gt;" class="cls-6" x="20.31" y="74.46" width="11.35" height="15.83"/><rect id="_Path_6" data-name="&lt;Path&gt;" class="cls-6" x="7.92" y="72.2" width="24.88" height="4.52"/></g><rect id="_Path_7" data-name="&lt;Path&gt;" class="cls-7" x="20.31" y="72.2" width="12.48" height="4.52"/><path id="_Path_8" data-name="&lt;Path&gt;" class="cls-8" d="M23.75,80.84H17a1.13,1.13,0,0,1-1.13-1.13h0A1.13,1.13,0,0,1,17,78.58h6.79a1.13,1.13,0,0,1,1.13,1.13h0A1.13,1.13,0,0,1,23.75,80.84Z"/><path id="_Path_9" data-name="&lt;Path&gt;" class="cls-9" d="M23.75,78.58H20.31v2.26h3.44a1.13,1.13,0,0,0,0-2.26Z"/></g><g id="_Group_4" data-name="&lt;Group&gt;"><circle id="_Path_10" data-name="&lt;Path&gt;" class="cls-3" cx="223.02" cy="144.35" r="20.45"/><path id="_Path_11" data-name="&lt;Path&gt;" class="cls-4" d="M243.24,147.4l-14.13-14-.53-.14-2.27-1.34-6-.13-2.82,1.85-.3.22-.45.29-1.31,5,2.22.91-2.48,2.39,1.9,6.9-2.68,7.21,8.25,8.25H223A20.45,20.45,0,0,0,243.24,147.4Z"/><path id="_Path_12" data-name="&lt;Path&gt;" class="cls-10" d="M231.63,139.44h-1.1a7.5,7.5,0,1,0-15,0h-1.1a8.6,8.6,0,1,1,17.21,0Z"/><path id="_Path_13" data-name="&lt;Path&gt;" class="cls-11" d="M223,130.84v1.1a7.51,7.51,0,0,1,7.5,7.5h1.1A8.61,8.61,0,0,0,223,130.84Z"/><path id="_Path_14" data-name="&lt;Path&gt;" class="cls-10" d="M230.1,157.31H215.94a2,2,0,0,1-2-2V139.13h18.17V155.3A2,2,0,0,1,230.1,157.31Z"/><path id="_Path_15" data-name="&lt;Path&gt;" class="cls-11" d="M223,139.13v18.17h7.08a2,2,0,0,0,2-2V139.13Z"/><rect id="_Path_16" data-name="&lt;Path&gt;" class="cls-12" x="216.21" y="143.67" width="13.63" height="9.09"/><rect id="_Path_17" data-name="&lt;Path&gt;" class="cls-13" x="223.02" y="143.67" width="6.82" height="9.09"/><path id="_Path_18" data-name="&lt;Path&gt;" class="cls-12" d="M232.11,141.4H213.94a1.14,1.14,0,0,1-1.14-1.14h0a1.14,1.14,0,0,1,1.14-1.14h18.17a1.14,1.14,0,0,1,1.14,1.14h0A1.14,1.14,0,0,1,232.11,141.4Z"/><path id="_Path_19" data-name="&lt;Path&gt;" class="cls-13" d="M232.11,139.13H223v2.27h9.09a1.14,1.14,0,0,0,0-2.27Z"/><path id="_Path_20" data-name="&lt;Path&gt;" class="cls-14" d="M219.21,139.13v7a1.14,1.14,0,0,0,1.14,1.14h0a1.14,1.14,0,0,0,1.14-1.14h0a1.14,1.14,0,0,1,1.14-1.14h0a1.14,1.14,0,0,1,1.14,1.14v2.27a1.14,1.14,0,0,0,1.14,1.14h0a1.14,1.14,0,0,0,1.14-1.14v-9.29Z"/><path id="_Path_21" data-name="&lt;Path&gt;" class="cls-15" d="M223,139.13v6a1.14,1.14,0,0,1,.73,1.06v2.27a1.14,1.14,0,0,0,2.27,0v-9.29Z"/></g><g id="_Group_5" data-name="&lt;Group&gt;"><circle id="_Path_22" data-name="&lt;Path&gt;" class="cls-3" cx="223.02" cy="80.84" r="20.36"/><path id="_Path_23" data-name="&lt;Path&gt;" class="cls-4" d="M226.2,100.95a20.37,20.37,0,0,0,17-17.58L232.47,72.62l-.3.36-2.75-2.75-4.23,3.24-2.82-2.82-1.41.73-3.59,3.54-4.16,1.84,10.17,10.17-8.63,2.58Z"/><path id="_Path_24" data-name="&lt;Path&gt;" class="cls-16" d="M214,74.5v13.1a2.74,2.74,0,0,0,2.74,2.74H223V74.5Z"/><g id="_Group_6" data-name="&lt;Group&gt;"><path id="_Path_25" data-name="&lt;Path&gt;" class="cls-17" d="M223,74.5V90.33h6.31a2.74,2.74,0,0,0,2.74-2.74V74.5Z"/><path id="_Path_26" data-name="&lt;Path&gt;" class="cls-17" d="M214.47,72.24a1.24,1.24,0,0,0-1.25,1.25v3.28H223V72.24h-8.56Z"/></g><path id="_Path_27" data-name="&lt;Path&gt;" class="cls-18" d="M232.82,73.48a1.24,1.24,0,0,0-1.25-1.25H223v4.52h9.8Z"/><rect id="_Path_28" data-name="&lt;Path&gt;" class="cls-19" x="220.76" y="72.24" width="4.52" height="18.09"/><rect id="_Path_29" data-name="&lt;Path&gt;" class="cls-20" x="223.02" y="72.24" width="2.26" height="18.09"/><path id="_Path_30" data-name="&lt;Path&gt;" class="cls-21" d="M223,72.24h-6.79V71A1.07,1.07,0,0,1,217.31,70h3.45A2.26,2.26,0,0,1,223,72.24Z"/><path id="_Path_31" data-name="&lt;Path&gt;" class="cls-22" d="M223,72.24h6.79V71A1.07,1.07,0,0,0,228.73,70h-3.45A2.26,2.26,0,0,0,223,72.24Z"/></g><g id="_Group_7" data-name="&lt;Group&gt;"><circle id="_Path_32" data-name="&lt;Path&gt;" class="cls-3" cx="223.02" cy="20.36" r="20.36"/><g id="_Clip_Group_" data-name="&lt;Clip Group&gt;"><g class="cls-23"><path id="_Path_33" data-name="&lt;Path&gt;" class="cls-4" d="M225.46,42.75c9.38-3.47,16.49-10.59,23.9-21.76l-9.76-9.76L233.3,14l-2.67-2.67-2.4,5.76-16.16,12.3Z"/></g></g><rect id="_Path_34" data-name="&lt;Path&gt;" class="cls-11" x="226.58" y="11.31" width="13.07" height="13.26"/><path id="_Path_35" data-name="&lt;Path&gt;" class="cls-24" d="M211.87,27.91V11.68a3.2,3.2,0,0,1,3.2-3.2h9.44a3.2,3.2,0,0,1,3.2,3.2V27.91a3.2,3.2,0,0,1-3.2,3.2h-9.44A3.2,3.2,0,0,1,211.87,27.91Z"/><path id="_Path_36" data-name="&lt;Path&gt;" class="cls-25" d="M224.51,8.48h-4.72V31.11h4.72a3.2,3.2,0,0,0,3.2-3.2V11.68A3.2,3.2,0,0,0,224.51,8.48Z"/><rect id="_Path_37" data-name="&lt;Path&gt;" class="cls-11" x="215.26" y="8.48" width="9.05" height="22.63"/><g id="_Group_8" data-name="&lt;Group&gt;"><rect id="_Path_38" data-name="&lt;Path&gt;" class="cls-11" x="215.26" y="19.75" width="9.05" height="11.36"/><rect id="_Path_39" data-name="&lt;Path&gt;" class="cls-10" x="215.26" y="8.48" width="4.53" height="22.63"/><circle id="_Path_40" data-name="&lt;Path&gt;" class="cls-26" cx="219.79" cy="18.57" r="5.48"/></g><path id="_Path_41" data-name="&lt;Path&gt;" class="cls-27" d="M219.79,13.09h0v11h0a5.48,5.48,0,1,0,0-11Z"/><circle id="_Path_42" data-name="&lt;Path&gt;" class="cls-12" cx="219.79" cy="18.57" r="3.99"/><path id="_Path_43" data-name="&lt;Path&gt;" class="cls-13" d="M219.79,14.58h0v8h0a4,4,0,1,0,0-8Z"/><rect id="_Path_44" data-name="&lt;Path&gt;" class="cls-28" x="217.53" y="8.34" width="4.53" height="2.26"/></g><g id="_Group_9" data-name="&lt;Group&gt;"><circle id="_Path_45" data-name="&lt;Path&gt;" class="cls-3" cx="110.37" cy="80.84" r="30.04"/><path id="_Path_46" data-name="&lt;Path&gt;" class="cls-4" d="M140.41,80.84A30,30,0,0,0,138,69.14L127.38,58.48H115.26l-1.63-2.09h-2.08v2.09H98.44v1.35l1.84,1.63a44.56,44.56,0,0,0-.85,8,66.42,66.42,0,0,0,1.35,11.29l4.08,4.08h-3.1l-4.9-5H84.13v6.33l5.77,5.76V94q0,.15,0,.29v.09c0,.07,0,.13,0,.2V95l0,.18v.1l0,.18v.1l0,.19,0,.09,0,.2,0,.08,0,.21v.06l.06.24v0a10.86,10.86,0,0,0,3.27,5.39l7.23,7.23a30.06,30.06,0,0,0,39.68-28.46Z"/><rect id="_Path_47" data-name="&lt;Path&gt;" class="cls-12" x="111.55" y="56.39" width="2.08" height="28.74"/><rect id="_Path_48" data-name="&lt;Path&gt;" class="cls-29" x="112.58" y="56.39" width="1.04" height="28.74"/><path id="_Path_49" data-name="&lt;Path&gt;" class="cls-12" d="M126.39,80.71H100.78a66.42,66.42,0,0,1-1.35-11.29,49,49,0,0,1,1.35-10.26h25.61A53.06,53.06,0,0,0,125,69.93,53.07,53.07,0,0,0,126.39,80.71Z"/><path id="_Path_50" data-name="&lt;Path&gt;" class="cls-30" d="M125,69.93a53.06,53.06,0,0,0,1.35,10.77H112.58V59.15h13.81A53.06,53.06,0,0,0,125,69.93Z"/><path id="_Path_51" data-name="&lt;Path&gt;" class="cls-6" d="M96.87,84.78v-5H84.13v6.33H89.9V94a10.85,10.85,0,0,0,10.82,10.82h19.61A10.85,10.85,0,0,0,131.15,94V84.78Z"/><g id="_Group_10" data-name="&lt;Group&gt;"><path id="_Path_52" data-name="&lt;Path&gt;" class="cls-31" d="M131.15,84.78V94a10.85,10.85,0,0,1-10.82,10.82h-7.75V84.78Z"/><path id="_Path_53" data-name="&lt;Path&gt;" class="cls-7" d="M131.15,91.92H89.9V94a10.72,10.72,0,0,0,1,4.53h39.25a10.72,10.72,0,0,0,1-4.53Z"/></g><path id="_Path_54" data-name="&lt;Path&gt;" class="cls-32" d="M131.15,91.92V94a10.71,10.71,0,0,1-1,4.53H112.58V91.92Z"/><g id="_Group_11" data-name="&lt;Group&gt;"><circle id="_Path_55" data-name="&lt;Path&gt;" class="cls-12" cx="100.53" cy="88.46" r="1.82"/><circle id="_Path_56" data-name="&lt;Path&gt;" class="cls-12" cx="108.57" cy="88.46" r="1.82"/></g><g id="_Group_12" data-name="&lt;Group&gt;"><circle id="_Path_57" data-name="&lt;Path&gt;" class="cls-30" cx="116.6" cy="88.46" r="1.82"/><circle id="_Path_58" data-name="&lt;Path&gt;" class="cls-30" cx="124.64" cy="88.46" r="1.82"/></g><rect id="_Path_59" data-name="&lt;Path&gt;" class="cls-6" x="98.44" y="58.48" width="28.94" height="1.35"/><rect id="_Path_60" data-name="&lt;Path&gt;" class="cls-31" x="112.58" y="58.48" width="14.8" height="1.35"/><g id="_Group_13" data-name="&lt;Group&gt;"><path id="_Path_61" data-name="&lt;Path&gt;" class="cls-12" d="M104.06,69.2a1.11,1.11,0,0,1,1-.71,1,1,0,0,1-.29-1.13,1.12,1.12,0,0,1,1.42-.66,1.06,1.06,0,0,1,.68,1.36l-.06.14.69.23q0,.11,0,.21a5.09,5.09,0,0,0,.26,1.62l-1.51-.51a1.16,1.16,0,0,1,0,.15,1.13,1.13,0,0,1-1.42.66A1.06,1.06,0,0,1,104.06,69.2Z"/><path id="_Path_62" data-name="&lt;Path&gt;" class="cls-12" d="M108.77,73.18l-2,.67.06.14a1.06,1.06,0,0,1-.68,1.36,1.12,1.12,0,0,1-1.42-.66,1,1,0,0,1,.29-1.13,1.11,1.11,0,0,1-1-.71,1.06,1.06,0,0,1,.68-1.36,1.12,1.12,0,0,1,1.42.66,1.16,1.16,0,0,1,0,.15l1.3-.43A2,2,0,0,0,108.77,73.18Z"/><path id="_Path_63" data-name="&lt;Path&gt;" class="cls-12" d="M121.06,72a1,1,0,0,1,.05.82,1.11,1.11,0,0,1-1,.71,1,1,0,0,1,.29,1.13,1.06,1.06,0,0,1-.35.47l-.14.09a1.15,1.15,0,0,1-.7.14l-.14,0-.09,0a1.06,1.06,0,0,1-.68-1.36,1,1,0,0,1,.06-.14l-2-.67a2,2,0,0,0,1.28-1.32l1.3.43a1.09,1.09,0,0,1,1.46-.8,1.1,1.1,0,0,1,.44.27l.06.06.05.06Z"/><path id="_Path_64" data-name="&lt;Path&gt;" class="cls-12" d="M119,69.76l-1.51.51h0a5.08,5.08,0,0,0,.26-1.62q0-.11,0-.21l.69-.23a1,1,0,0,1-.06-.14A1.06,1.06,0,0,1,119,66.7a1.15,1.15,0,0,1,.86.05l.15.08a1.06,1.06,0,0,1,.19.16l.06.06.09.14a1.11,1.11,0,0,1,.07.16,1,1,0,0,1-.29,1.13,1.11,1.11,0,0,1,1,.71,1,1,0,0,1-.05.82l-.09.14-.05.06-.06.06a1.1,1.1,0,0,1-.44.27,1.14,1.14,0,0,1-1.25-.36l-.09-.14a1,1,0,0,1-.11-.3Z"/></g><g id="_Group_14" data-name="&lt;Group&gt;"><path id="_Path_65" data-name="&lt;Path&gt;" class="cls-30" d="M121.06,72a1,1,0,0,1,.05.82,1.11,1.11,0,0,1-1,.71,1,1,0,0,1,.29,1.13,1.06,1.06,0,0,1-.35.47l-.14.09a1.15,1.15,0,0,1-.61.15h-.09l-.14,0-.09,0a1.06,1.06,0,0,1-.68-1.36,1,1,0,0,1,.06-.14l-2-.67a2,2,0,0,0,1.28-1.32l1.3.43a1.09,1.09,0,0,1,1.46-.8,1.1,1.1,0,0,1,.44.27l.06.06.05.06Z"/><path id="_Path_66" data-name="&lt;Path&gt;" class="cls-30" d="M117.46,70.27a5.08,5.08,0,0,0,.26-1.62q0-.11,0-.21l.69-.23a1,1,0,0,1-.06-.14A1.06,1.06,0,0,1,119,66.7a1.15,1.15,0,0,1,.86.05l.15.08a1.12,1.12,0,0,1,.19.16l.06.06.09.14a1.11,1.11,0,0,1,.07.16,1,1,0,0,1-.29,1.13,1.11,1.11,0,0,1,1,.71,1,1,0,0,1-.05.82l-.09.14-.05.06-.06.06a1.1,1.1,0,0,1-.44.27,1.14,1.14,0,0,1-1.25-.36l-.09-.14a1.11,1.11,0,0,1-.07-.16,1.12,1.12,0,0,1,0-.15h0Z"/></g><path id="_Compound_Path_" data-name="&lt;Compound Path&gt;" class="cls-12" d="M116.47,70.36a4.23,4.23,0,1,0-7.77,0,1.21,1.21,0,0,0,1.54,1.85,4.24,4.24,0,0,0,.48.27v1.33a.58.58,0,0,0,.57.57h.07V72.85h.55v1.54h.4V72.85h.55v1.54h.4V72.85h.55v1.54h.07a.58.58,0,0,0,.57-.57V72.48a4.24,4.24,0,0,0,.48-.27,1.21,1.21,0,0,0,1.54-1.85Zm-5.37-1h-.42a.81.81,0,0,1-.81-.81v-.42a.81.81,0,0,1,.81-.81h.42a.81.81,0,0,1,.81.81v.42A.81.81,0,0,1,111.11,69.39Zm2,1.67h-1a.32.32,0,0,1-.27-.47l.25-.44.25-.44a.32.32,0,0,1,.55,0l.25.44.25.44A.32.32,0,0,1,113.1,71.07Zm2.2-2.48a.81.81,0,0,1-.81.81h-.42a.81.81,0,0,1-.81-.81v-.42a.81.81,0,0,1,.81-.81h.42a.81.81,0,0,1,.81.81Z"/><path id="_Compound_Path_2" data-name="&lt;Compound Path&gt;" class="cls-30" d="M116.47,70.36a4.23,4.23,0,0,0-3.89-5.91v5.1a.31.31,0,0,1,.27.16l.25.44.26.44a.32.32,0,0,1-.27.47h-.51v1.78h.28v1.54h.4V72.85h.55v1.54h.07a.58.58,0,0,0,.57-.57V72.48a4.16,4.16,0,0,0,.48-.27,1.21,1.21,0,0,0,1.54-1.85Zm-1.18-1.77a.81.81,0,0,1-.81.81h-.42a.81.81,0,0,1-.81-.81v-.42a.81.81,0,0,1,.81-.81h.42a.81.81,0,0,1,.81.81Z"/></g><text class="cls-33" transform="translate(1.47 56.46)">DON<tspan class="cls-34" x="19.24" y="0">A</tspan><tspan class="cls-35" x="24.59" y="0">TED</tspan></text><text class="cls-36" transform="translate(251.81 83.03)">GOODS</text><text class="cls-36" transform="translate(251.81 22.56)">STORIES<tspan class="cls-37" x="24.75" y="0"></tspan><tspan x="29.6" y="0"></tspan></text><text class="cls-36" transform="translate(251.81 148.22)">SKILLS</text><g id="_Group_15" data-name="&lt;Group&gt;"><text class="cls-33" transform="translate(5.62 111.85)">GOODS</text></g><text class="cls-38" transform="translate(88.4 47.3)">G<tspan class="cls-39" x="7.16" y="0">L</tspan><tspan class="cls-40" x="12.41" y="0">OBAL</tspan><tspan class="cls-41" x="38.65" y="0">L</tspan><tspan x="43.49" y="0">Y</tspan></text><text class="cls-42" transform="translate(93.56 123.9)">T<tspan class="cls-43" x="5.82" y="0">R</tspan><tspan class="cls-44" x="12.06" y="0">ADED</tspan></text></g></g></g></svg>
