<svg xmlns="http://www.w3.org/2000/svg" viewBox="0 0 68.71 68.71"><defs><style>.cls-1{fill:#006387;}.cls-2{fill:#01556b;}.cls-3{fill:#db9b45;}.cls-4{fill:#c1853e;}.cls-5{fill:#fee187;}.cls-6{fill:#ffedb5;}</style></defs><title>Asset 51_icon</title><g id="Layer_2" data-name="Layer 2"><g id="Capa_1" data-name="Capa 1"><g id="_Group_" data-name="&lt;Group&gt;"><circle id="_Path_" data-name="&lt;Path&gt;" class="cls-1" cx="34.35" cy="34.35" r="34.35"/><path id="_Path_2" data-name="&lt;Path&gt;" class="cls-2" d="M67.19,44.47,40.86,18.13l-.42.87-3-3.08-.09,5.44-3.25-3.25L32.84,30.56l-1.6-1.74-.38,5.3,1.6,1.6L32.22,39l-9.77-9.77-.16.92-3.13-3,0,5.58-3.5-3.5.67,14.26L12.89,40l-1,6.32L13,49.7l3.39,6.09L18,58l2.78,6.09,2.5,2.77.41.13a34.39,34.39,0,0,0,43.5-22.55Z"/><path id="_Path_3" data-name="&lt;Path&gt;" class="cls-3" d="M43.08,23.49a1.46,1.46,0,0,0-1.46,1.46v4h-.38v-9.8a1.46,1.46,0,0,0-2.92,0v9.8h-.47v-12a1.46,1.46,0,1,0-2.92,0v12h-.47v-9.8a1.46,1.46,0,0,0-2.92,0v8.38a2.08,2.08,0,0,1,1.09,1.83v2.91a1,1,0,0,0,1,1h.79a4,4,0,0,1,4,4v2.44H37.24V37.27a2.77,2.77,0,0,0-2.77-2.77h-.79a2.27,2.27,0,0,1-2.27-2.27V29.32a.84.84,0,1,0-1.68,0v8.61a6.71,6.71,0,0,0,2,4.78l.94.94v25q.85,0,1.71,0a34.48,34.48,0,0,0,7.26-.77v-24l.76-.76a7.37,7.37,0,0,0,2.16-5.21v-13A1.46,1.46,0,0,0,43.08,23.49Z"/><path id="_Path_4" data-name="&lt;Path&gt;" class="cls-4" d="M43.08,23.49a1.46,1.46,0,0,0-1.46,1.46v4h-.38v-9.8a1.46,1.46,0,0,0-2.92,0v9.8h-.47v-12a1.46,1.46,0,0,0-1.46-1.46h0V33.74a4,4,0,0,1,2.11,3.53v2.44H37.24V37.27a2.76,2.76,0,0,0-.88-2v33.4a34.43,34.43,0,0,0,5.26-.71v-24l.76-.76a7.37,7.37,0,0,0,2.16-5.21v-13A1.46,1.46,0,0,0,43.08,23.49Z"/><path id="_Path_5" data-name="&lt;Path&gt;" class="cls-5" d="M24.8,34.71a1.46,1.46,0,0,0-1.46,1.46v4H23v-9.8a1.46,1.46,0,1,0-2.92,0v9.8h-.47v-12a1.46,1.46,0,0,0-2.92,0v12h-.47v-9.8a1.46,1.46,0,0,0-2.92,0v8.38a2.08,2.08,0,0,1,1.09,1.83v2.91a1,1,0,0,0,1,1h.79a4,4,0,0,1,4,4v2.44H19V48.49a2.77,2.77,0,0,0-2.77-2.77H15.4a2.27,2.27,0,0,1-2.27-2.27V40.54a.84.84,0,0,0-1.68,0v8.61a6.71,6.71,0,0,0,2,4.78l.94.94V62.3a34.24,34.24,0,0,0,9,4.61V55.12l.76-.76a7.37,7.37,0,0,0,2.16-5.21v-13A1.46,1.46,0,0,0,24.8,34.71Z"/><path id="_Path_6" data-name="&lt;Path&gt;" class="cls-6" d="M24.8,34.71a1.46,1.46,0,0,0-1.46,1.46v4H23v-9.8a1.46,1.46,0,1,0-2.92,0v9.8h-.47v-12a1.46,1.46,0,0,0-1.46-1.46H18v18.2a4,4,0,0,1,2.19,3.56v2.44H19V48.49a2.76,2.76,0,0,0-1-2.08V64.57a34.11,34.11,0,0,0,5.34,2.34V55.12l.76-.76a7.37,7.37,0,0,0,2.16-5.21v-13A1.46,1.46,0,0,0,24.8,34.71Z"/></g></g></g></svg>