<svg xmlns="http://www.w3.org/2000/svg" viewBox="0 0 83.53 33.83"><defs><style>.cls-1{fill:#d9dbd8;}.cls-2{fill:#006387;}.cls-3{fill:#557086;}</style></defs><title>Shark</title><g id="Layer_2" data-name="Layer 2"><g id="Capa_1" data-name="Capa 1"><g id="_Group_" data-name="&lt;Group&gt;"><path id="_Path_" data-name="&lt;Path&gt;" class="cls-1" d="M65.83,29.23s5.81-1.36-.77-4.65l-3.68-1.94s-2.13-.77-1.36-4.84l10,5.81s3.56,2.83,13.5-6.16a9.59,9.59,0,0,0-.67-2.17L56.53,12.55l-25,1.2L11.28,15.1S23.87,29.5,37.78,31.2a47.77,47.77,0,0,0,28.49-1.76Z"/><path id="_Path_2" data-name="&lt;Path&gt;" class="cls-2" d="M38.53,0,51.89,9.14s11.42.93,31,6.16c0,0,1.55,1.55-1.94,3.48,0,0-7.79,3.68-20.06-1.74,0,0-10.53-5.23-12.85,5l-.58,6.39S43,34.85,33.3,33.69c0,0,8-2.9,7.2-7.74,0,0-16.59,1.16-29.22-10.84l-7,10.07V15.49L0,4.76a72.15,72.15,0,0,1,10.45,7.79s21.1-5.31,29-3.41Z"/><g id="_Group_2" data-name="&lt;Group&gt;"><path id="_Path_3" data-name="&lt;Path&gt;" class="cls-3" d="M56.73,23.62A4.53,4.53,0,0,1,56,22.39a7.75,7.75,0,0,1-.63-3.12c0-.29,0-.58.05-.87s.1-.56.14-.83a7.29,7.29,0,0,1,.21-.76,4.49,4.49,0,0,1,.26-.65,5.26,5.26,0,0,1,.5-.92c.14-.21.23-.33.23-.33s0,.15,0,.4l-.06.44c0,.17,0,.36-.07.57a22.08,22.08,0,0,0-.21,3c0,.53,0,1.07,0,1.57s.08,1,.14,1.39C56.62,23,56.73,23.62,56.73,23.62Z"/></g><g id="_Group_3" data-name="&lt;Group&gt;"><path id="_Path_4" data-name="&lt;Path&gt;" class="cls-3" d="M54.8,23.62A4.53,4.53,0,0,1,54,22.39a7.75,7.75,0,0,1-.63-3.12c0-.29,0-.58.05-.87s.1-.56.14-.83a7.28,7.28,0,0,1,.21-.76,4.49,4.49,0,0,1,.26-.65,5.26,5.26,0,0,1,.5-.92c.14-.21.23-.33.23-.33s0,.15,0,.4l-.06.44c0,.17,0,.36-.07.57a22.07,22.07,0,0,0-.21,3c0,.53,0,1.07,0,1.57s.08,1,.14,1.39C54.7,23,54.8,23.62,54.8,23.62Z"/></g><g id="_Group_4" data-name="&lt;Group&gt;"><path id="_Path_5" data-name="&lt;Path&gt;" class="cls-3" d="M52.88,23.62a4.53,4.53,0,0,1-.76-1.23,7.75,7.75,0,0,1-.63-3.12c0-.29,0-.58.05-.87s.1-.56.14-.83a7.29,7.29,0,0,1,.21-.76,4.49,4.49,0,0,1,.26-.65,5.25,5.25,0,0,1,.5-.92c.14-.21.23-.33.23-.33s0,.15,0,.4l-.06.44c0,.17,0,.36-.07.57a22.07,22.07,0,0,0-.21,3c0,.53,0,1.07,0,1.57s.08,1,.14,1.39C52.78,23,52.88,23.62,52.88,23.62Z"/></g><circle id="_Path_6" data-name="&lt;Path&gt;" class="cls-1" cx="67.78" cy="16.87" r="0.59"/></g></g></g></svg>