<svg xmlns="http://www.w3.org/2000/svg" viewBox="0 0 266.65 70.93"><defs><style>.cls-1{fill:#006387;}</style></defs><title>Sharks_1</title><g id="Layer_2" data-name="Layer 2"><g id="Capa_1" data-name="Capa 1"><g id="_Group_" data-name="&lt;Group&gt;"><path id="_Path_" data-name="&lt;Path&gt;" class="cls-1" d="M134.17,0l17.07,11.68s14.6,1.19,39.58,7.87c0,0,2,2-2.47,4.45,0,0-10,4.7-25.63-2.23,0,0-13.45-6.68-16.42,6.43l-.74,8.16s-5.69,8.16-18.06,6.68c0,0,10.24-3.71,9.2-9.9,0,0-21.2,1.48-37.34-13.85l-9,12.86V19.79L84.94,6.09A92.2,92.2,0,0,1,98.3,16s27-6.78,37.11-4.36Z"/></g><g id="_Group_2" data-name="&lt;Group&gt;"><path id="_Path_2" data-name="&lt;Path&gt;" class="cls-1" d="M38.53,37.1l13.36,9.14s11.42.93,31,6.16c0,0,1.55,1.55-1.94,3.48,0,0-7.79,3.68-20.06-1.74,0,0-10.53-5.23-12.85,5l-.58,6.39S43,71.95,33.3,70.79c0,0,8-2.9,7.2-7.74,0,0-16.59,1.16-29.22-10.84l-7,10.07V52.59L0,41.86a72.15,72.15,0,0,1,10.45,7.79s21.1-5.31,29-3.41Z"/></g><g id="_Group_3" data-name="&lt;Group&gt;"><path id="_Path_3" data-name="&lt;Path&gt;" class="cls-1" d="M222,37.1l13.36,9.14s11.42.93,31,6.16c0,0,1.55,1.55-1.94,3.48,0,0-7.79,3.68-20.06-1.74,0,0-10.53-5.23-12.85,5l-.58,6.39s-4.45,6.39-14.13,5.23c0,0,8-2.9,7.2-7.74,0,0-16.59,1.16-29.22-10.84l-7,10.07V52.59l-4.26-10.72a72.15,72.15,0,0,1,10.45,7.79s21.1-5.31,29-3.41Z"/></g></g></g></svg>