<svg xmlns="http://www.w3.org/2000/svg" viewBox="0 0 70 70"><defs><style>.cls-1{fill:#ff7137;}.cls-2{fill:#f25b2f;}.cls-3{fill:#fff;}.cls-4{fill:#c8c6cc;}.cls-5{fill:#dcdbdd;}.cls-6{fill:#ffde47;}.cls-7{fill:#ffc012;}.cls-8{fill:#f4a200;}.cls-9{fill:#d38802;}.cls-10{fill:#f9b54c;}.cls-11{fill:#db9b45;}.cls-12,.cls-14{fill:none;stroke-miterlimit:10;}.cls-12{stroke:#5b5b5f;stroke-width:0.25px;}.cls-13{fill:#5e5e5e;}.cls-14{stroke:#222328;}</style></defs><title>Asset 46_icon</title><g id="Layer_2" data-name="Layer 2"><g id="Capa_1" data-name="Capa 1"><g id="_Group_" data-name="&lt;Group&gt;"><circle id="_Path_" data-name="&lt;Path&gt;" class="cls-1" cx="35" cy="35" r="35"/><path id="_Path_2" data-name="&lt;Path&gt;" class="cls-2" d="M70,35a37.08,37.08,0,0,0-2.57-13.63L55.85,8.95H42.68L40.9,6.51H38.64V8.95H24.41v1.58l2,1.9a55.53,55.53,0,0,0-.93,9.26,82.71,82.71,0,0,0,1.47,13.15l4.43,4.75H28l-5.32-5.77H8.85V41.2l6.27,6.71v2.46q0,.17,0,.34s0,.07,0,.11,0,.15,0,.23v.12c0,.07,0,.14,0,.21v.12l0,.21v.12l0,.21,0,.12,0,.22,0,.11,0,.23,0,.09,0,.25v.07l.06.28v0A12.84,12.84,0,0,0,19,59.73l7.86,8.43A30.62,30.62,0,0,0,37.36,70C55.39,70,70,54.33,70,35Z"/><rect id="_Path_3" data-name="&lt;Path&gt;" class="cls-3" x="36.49" y="6.51" width="2.1" height="28.97"/><rect id="_Path_4" data-name="&lt;Path&gt;" class="cls-4" x="37.53" y="6.51" width="1.05" height="28.97"/><path id="_Path_5" data-name="&lt;Path&gt;" class="cls-3" d="M51.45,31H25.64a66.94,66.94,0,0,1-1.36-11.38A49.34,49.34,0,0,1,25.64,9.3H51.45a53.47,53.47,0,0,0-1.36,10.86A53.48,53.48,0,0,0,51.45,31Z"/><path id="_Path_6" data-name="&lt;Path&gt;" class="cls-5" d="M50.09,20.16A53.47,53.47,0,0,0,51.45,31H37.53V9.3H51.45A53.48,53.48,0,0,0,50.09,20.16Z"/><path id="_Path_7" data-name="&lt;Path&gt;" class="cls-6" d="M21.69,35.13v-5H8.85v6.38h5.82v7.94a10.93,10.93,0,0,0,10.9,10.9H45.34a10.93,10.93,0,0,0,10.9-10.9V35.13Z"/><g id="_Group_2" data-name="&lt;Group&gt;"><path id="_Path_8" data-name="&lt;Path&gt;" class="cls-7" d="M56.24,35.13v9.32a10.93,10.93,0,0,1-10.9,10.9H37.53V35.13Z"/><path id="_Path_9" data-name="&lt;Path&gt;" class="cls-8" d="M56.24,42.32H14.67v2.13a10.8,10.8,0,0,0,1,4.56H55.24a10.8,10.8,0,0,0,1-4.56Z"/></g><path id="_Path_10" data-name="&lt;Path&gt;" class="cls-9" d="M56.24,42.32v2.13a10.8,10.8,0,0,1-1,4.56H37.53V42.32Z"/><g id="_Group_3" data-name="&lt;Group&gt;"><circle id="_Path_11" data-name="&lt;Path&gt;" class="cls-3" cx="25.39" cy="38.84" r="1.84"/><circle id="_Path_12" data-name="&lt;Path&gt;" class="cls-3" cx="33.48" cy="38.84" r="1.84"/></g><g id="_Group_4" data-name="&lt;Group&gt;"><circle id="_Path_13" data-name="&lt;Path&gt;" class="cls-5" cx="41.58" cy="38.84" r="1.84"/><circle id="_Path_14" data-name="&lt;Path&gt;" class="cls-5" cx="49.68" cy="38.84" r="1.84"/></g><rect id="_Path_15" data-name="&lt;Path&gt;" class="cls-10" x="23.28" y="8.62" width="29.17" height="1.36"/><rect id="_Path_16" data-name="&lt;Path&gt;" class="cls-11" x="37.53" y="8.62" width="14.92" height="1.36"/><g id="_Group_5" data-name="&lt;Group&gt;"><path id="_Path_17" data-name="&lt;Path&gt;" class="cls-3" d="M28.94,19.43a1.11,1.11,0,0,1,1-.72,1,1,0,0,1-.29-1.14A1.13,1.13,0,0,1,31,16.91a1.07,1.07,0,0,1,.69,1.37l-.06.14.69.23q0,.11,0,.22a5.13,5.13,0,0,0,.27,1.64L31.1,20a1.17,1.17,0,0,1,0,.15,1.13,1.13,0,0,1-1.43.66A1.07,1.07,0,0,1,28.94,19.43Z"/><path id="_Path_18" data-name="&lt;Path&gt;" class="cls-3" d="M33.69,23.43l-2,.68.06.14A1.07,1.07,0,0,1,31,25.62,1.13,1.13,0,0,1,29.62,25a1,1,0,0,1,.29-1.14,1.11,1.11,0,0,1-1-.72,1.07,1.07,0,0,1,.69-1.37,1.13,1.13,0,0,1,1.43.66,1.17,1.17,0,0,1,0,.15l1.31-.44A2,2,0,0,0,33.69,23.43Z"/><path id="_Path_19" data-name="&lt;Path&gt;" class="cls-3" d="M46.07,22.27a1,1,0,0,1,.05.83,1.11,1.11,0,0,1-1,.72A1,1,0,0,1,45.45,25a1.07,1.07,0,0,1-.35.48l-.14.09a1.16,1.16,0,0,1-.71.14l-.14,0-.09,0a1.07,1.07,0,0,1-.69-1.37,1,1,0,0,1,.06-.14l-2-.68a2,2,0,0,0,1.29-1.33l1.31.44a1.1,1.1,0,0,1,1.47-.81,1.11,1.11,0,0,1,.44.27l.06.06.05.07Z"/><path id="_Path_20" data-name="&lt;Path&gt;" class="cls-3" d="M44,20l-1.52.51h0a5.12,5.12,0,0,0,.27-1.64q0-.11,0-.22l.69-.23a1,1,0,0,1-.06-.14A1.07,1.07,0,0,1,44,16.91a1.16,1.16,0,0,1,.86.05L45,17a1.07,1.07,0,0,1,.19.16l.06.06.1.14a1.12,1.12,0,0,1,.07.16,1,1,0,0,1-.29,1.14,1.11,1.11,0,0,1,1,.72,1,1,0,0,1-.05.83L46,20.4l-.05.07-.06.06a1.11,1.11,0,0,1-.44.27,1.15,1.15,0,0,1-1.26-.36l-.1-.14A1,1,0,0,1,44,20Z"/></g><g id="_Group_6" data-name="&lt;Group&gt;"><path id="_Path_21" data-name="&lt;Path&gt;" class="cls-5" d="M46.07,22.27a1,1,0,0,1,.05.83,1.11,1.11,0,0,1-1,.72A1,1,0,0,1,45.45,25a1.07,1.07,0,0,1-.35.48l-.14.09a1.15,1.15,0,0,1-.61.15h-.09l-.14,0-.09,0a1.07,1.07,0,0,1-.69-1.37,1,1,0,0,1,.06-.14l-2-.68a2,2,0,0,0,1.29-1.33l1.31.44a1.1,1.1,0,0,1,1.47-.81,1.11,1.11,0,0,1,.44.27l.06.06.05.07Z"/><path id="_Path_22" data-name="&lt;Path&gt;" class="cls-5" d="M42.45,20.5a5.12,5.12,0,0,0,.27-1.64q0-.11,0-.22l.69-.23a1,1,0,0,1-.06-.14A1.07,1.07,0,0,1,44,16.91a1.16,1.16,0,0,1,.86.05L45,17a1.13,1.13,0,0,1,.19.16l.06.06.1.14a1.12,1.12,0,0,1,.07.16,1,1,0,0,1-.29,1.14,1.11,1.11,0,0,1,1,.72,1,1,0,0,1-.05.83L46,20.4l-.05.07-.06.06a1.11,1.11,0,0,1-.44.27,1.15,1.15,0,0,1-1.26-.36l-.1-.14a1.12,1.12,0,0,1-.07-.16A1.13,1.13,0,0,1,44,20h0Z"/></g><path id="_Compound_Path_" data-name="&lt;Compound Path&gt;" class="cls-3" d="M41.45,20.59a4.26,4.26,0,1,0-7.84,0,1.21,1.21,0,0,0,1.55,1.86,4.27,4.27,0,0,0,.48.28v1.34a.58.58,0,0,0,.58.58h.07V23.1h.56v1.55h.4V23.1h.56v1.55h.4V23.1h.56v1.55h.07a.58.58,0,0,0,.58-.58V22.73a4.27,4.27,0,0,0,.48-.28,1.21,1.21,0,0,0,1.55-1.86Zm-5.41-1h-.42a.82.82,0,0,1-.82-.82v-.42a.82.82,0,0,1,.82-.82H36a.82.82,0,0,1,.82.82v.42A.82.82,0,0,1,36,19.62Zm2,1.69H37a.32.32,0,0,1-.28-.48l.26-.44.26-.44a.32.32,0,0,1,.55,0l.26.44.26.44A.32.32,0,0,1,38,21.31Zm2.22-2.5a.82.82,0,0,1-.82.82H39a.82.82,0,0,1-.82-.82v-.42a.82.82,0,0,1,.82-.82h.42a.82.82,0,0,1,.82.82Z"/><path id="_Compound_Path_2" data-name="&lt;Compound Path&gt;" class="cls-5" d="M41.45,20.59a4.27,4.27,0,0,0-3.92-6v5.14a.31.31,0,0,1,.28.16l.26.44.26.44a.32.32,0,0,1-.28.48h-.51V23.1h.28v1.55h.4V23.1h.56v1.55h.07a.58.58,0,0,0,.58-.58V22.73a4.19,4.19,0,0,0,.48-.28,1.21,1.21,0,0,0,1.55-1.86Zm-1.19-1.79a.82.82,0,0,1-.82.82H39a.82.82,0,0,1-.82-.82v-.42a.82.82,0,0,1,.82-.81h.42a.82.82,0,0,1,.82.81Z"/><g id="_Group_7" data-name="&lt;Group&gt;"><line id="_Path_23" data-name="&lt;Path&gt;" class="cls-12" x1="18.52" y1="52.75" x2="15.94" y2="57.23"/><line id="_Path_24" data-name="&lt;Path&gt;" class="cls-12" x1="18.52" y1="52.75" x2="19.3" y2="57.87"/><line id="_Path_25" data-name="&lt;Path&gt;" class="cls-12" x1="18.52" y1="52.75" x2="22.2" y2="56.39"/><line id="_Path_26" data-name="&lt;Path&gt;" class="cls-12" x1="18.52" y1="52.75" x2="23.69" y2="52.5"/><line id="_Path_27" data-name="&lt;Path&gt;" class="cls-12" x1="18.52" y1="52.75" x2="21.84" y2="48.77"/><line id="_Path_28" data-name="&lt;Path&gt;" class="cls-12" x1="18.52" y1="52.75" x2="17.83" y2="47.62"/><line id="_Path_29" data-name="&lt;Path&gt;" class="cls-12" x1="18.52" y1="52.75" x2="14.28" y2="49.79"/><line id="_Path_30" data-name="&lt;Path&gt;" class="cls-12" x1="18.52" y1="52.75" x2="13.47" y2="53.88"/><circle id="_Path_31" data-name="&lt;Path&gt;" class="cls-13" cx="18.52" cy="52.75" r="0.96"/><circle id="_Path_32" data-name="&lt;Path&gt;" class="cls-14" cx="18.52" cy="52.75" r="5.18"/></g><g id="_Group_8" data-name="&lt;Group&gt;"><line id="_Path_33" data-name="&lt;Path&gt;" class="cls-12" x1="51.2" y1="51.72" x2="48.1" y2="57.1"/><line id="_Path_34" data-name="&lt;Path&gt;" class="cls-12" x1="51.2" y1="51.72" x2="52.12" y2="57.85"/><line id="_Path_35" data-name="&lt;Path&gt;" class="cls-12" x1="51.2" y1="51.72" x2="55.6" y2="56.09"/><line id="_Path_36" data-name="&lt;Path&gt;" class="cls-12" x1="51.2" y1="51.72" x2="57.4" y2="51.42"/><line id="_Path_37" data-name="&lt;Path&gt;" class="cls-12" x1="51.2" y1="51.72" x2="55.17" y2="46.95"/><line id="_Path_38" data-name="&lt;Path&gt;" class="cls-12" x1="51.2" y1="51.72" x2="50.37" y2="45.56"/><line id="_Path_39" data-name="&lt;Path&gt;" class="cls-12" x1="51.2" y1="51.72" x2="46.1" y2="48.17"/><line id="_Path_40" data-name="&lt;Path&gt;" class="cls-12" x1="51.2" y1="51.72" x2="45.14" y2="53.07"/><circle id="_Path_41" data-name="&lt;Path&gt;" class="cls-13" cx="51.2" cy="51.72" r="1.15"/><circle id="_Path_42" data-name="&lt;Path&gt;" class="cls-14" cx="51.2" cy="51.72" r="6.21"/></g></g></g></g></svg>