<svg xmlns="http://www.w3.org/2000/svg" viewBox="0 0 46.76 46.76"><defs><style>.cls-1{fill:#f57031;}.cls-2{fill:#d65b2b;}.cls-3{fill:#01566d;}.cls-4{fill:#027b9b;}.cls-5{fill:#006387;}.cls-6{fill:#dafcff;}.cls-7{fill:#00b1bc;}</style></defs><title>Asset 22_icon</title><g id="Layer_2" data-name="Layer 2"><g id="Capa_1" data-name="Capa 1"><g id="_Group_" data-name="&lt;Group&gt;"><circle id="_Path_" data-name="&lt;Path&gt;" class="cls-1" cx="23.38" cy="23.38" r="23.38"/><path id="_Path_2" data-name="&lt;Path&gt;" class="cls-2" d="M27,46.48A23.39,23.39,0,0,0,46.64,25.74l-13-13L14.77,21.86l-3.85,1.76,8.71,8.71-3.22,3.59Z"/><path id="_Path_3" data-name="&lt;Path&gt;" class="cls-3" d="M19.68,36.46h-2A1.73,1.73,0,0,1,16,35.21L12.93,24.39h5.6l2.81,9.88A1.73,1.73,0,0,1,19.68,36.46Z"/><path id="_Path_4" data-name="&lt;Path&gt;" class="cls-4" d="M32.71,30,12.93,24.39v-9l19.91-2.85a1,1,0,0,1,1.16,1V29.06A1,1,0,0,1,32.71,30Z"/><path id="_Path_5" data-name="&lt;Path&gt;" class="cls-5" d="M12.93,20v4.39L32.71,30a1,1,0,0,0,1.3-1V20Z"/><g id="_Group_2" data-name="&lt;Group&gt;"><polygon id="_Path_6" data-name="&lt;Path&gt;" class="cls-6" points="27.38 13.29 27.38 28.52 31.45 29.68 31.45 12.71 27.38 13.29"/><path id="_Path_7" data-name="&lt;Path&gt;" class="cls-6" d="M12.93,24.39h0v-9h0a3,3,0,0,0-3,3v3A3,3,0,0,0,12.93,24.39Z"/></g><g id="_Group_3" data-name="&lt;Group&gt;"><polygon id="_Path_8" data-name="&lt;Path&gt;" class="cls-7" points="27.38 19.99 27.38 28.52 31.45 29.68 31.45 19.99 27.38 19.99"/><path id="_Path_9" data-name="&lt;Path&gt;" class="cls-7" d="M9.92,20v1.38a3,3,0,0,0,3,3V20h-3Z"/></g></g></g></g></svg>