<svg xmlns="http://www.w3.org/2000/svg" viewBox="0 0 68.49 68.37"><defs><style>.cls-1{fill:#ff7137;}.cls-2{fill:#f25b2f;}.cls-3{fill:#cbc2a9;}.cls-4{fill:#6e4f40;}.cls-5{fill:#6f503f;}.cls-6{fill:#869f1a;}.cls-7{fill:#eae4d6;}.cls-8{fill:#c2baaf;}.cls-9{fill:#6e4e40;}.cls-10{fill:#5a3f34;}.cls-11{fill:#ffde47;}.cls-12{fill:#ffc012;}.cls-13{fill:#5a4034;}.cls-14{fill:#5d4536;}.cls-15{fill:#a9a08f;}.cls-16{fill:#8c8474;}</style></defs><title>Asset 47_icon</title><g id="Layer_2" data-name="Layer 2"><g id="Capa_1" data-name="Capa 1"><g id="zBRTqX"><g id="_Group_" data-name="&lt;Group&gt;"><path id="_Path_" data-name="&lt;Path&gt;" class="cls-1" d="M29.49,68.09a55.94,55.94,0,0,1-5.8-1.32A33.75,33.75,0,0,1,2.09,46.06,32.05,32.05,0,0,1,0,35.4,33.24,33.24,0,0,1,5.29,16,33.32,33.32,0,0,1,26.94.84,33,33,0,0,1,51.41,4.68,33.52,33.52,0,0,1,67.79,27.52a33.41,33.41,0,0,1-.34,15.05c0,.16-.1.31-.15.46-.13-.16-.25-.32-.39-.46L36.25,11.91a2.88,2.88,0,0,0-.54-.34h0l-.13-.14-.74-1c-.42-.58-.82-.58-1.23,0L19.49,30.85q-3.64,5.26-7.28,10.52c-.12.17-.37.24-.56.35,0-.28,0-.56,0-.85,0-.84,0-.84-.81-.84-1.63,0-1.63,0-1.6,1.68-.12,0-.28,0-.36,0s-.51.36-.56.59.3.4.5.56.27,0,.41.05c0,1.32,0,2.63,0,3.95a2.8,2.8,0,0,0,.21.72,3.25,3.25,0,0,0,.44.81Q19.44,58,29,67.55C29.17,67.73,29.33,67.91,29.49,68.09Z"/><path id="_Path_2" data-name="&lt;Path&gt;" class="cls-2" d="M35.7,11.57a2.88,2.88,0,0,1,.54.34L66.9,42.57c.14.14.26.31.39.46a31.38,31.38,0,0,1-4,9.26,34,34,0,0,1-17.16,14,29.92,29.92,0,0,1-9.74,2c-2.11.06-4.22-.08-6.33-.15a3.59,3.59,0,0,1-.59-.12c-.16-.18-.32-.37-.49-.54Q19.45,58,9.9,48.43a3.24,3.24,0,0,1-.44-.81c.56,0,1.13,0,1.69,0,.41,0,.52-.14.51-.53,0-1.37,0-2.74,0-4.12A1.47,1.47,0,0,0,13,42.32q9.33-13.56,18.7-27.08c.63-.91,1.3-1.8,2-2.7a2.13,2.13,0,0,1-.09.4A178,178,0,0,1,23,33.18c-1.22,2-2.51,4-3.77,6l-3.5,5c-.59,0-1.18,0-1.77,0-.15,0-.42.17-.42.27,0,1,0,2.06,0,3.13H54.4c.08,0,.18,0,.24,0s.26-.17.26-.26c0-1,0-2.06,0-3.17H52.7c-.17-.25-.33-.5-.5-.74l-3.14-4.25c-.12-.21-.23-.43-.36-.63a123.93,123.93,0,0,1-9.12-15.4c-1.74-3.53-3.31-7.14-5-10.72a2.73,2.73,0,0,1,.51.45Q45.07,27.42,55,42c.45.67.91,1.11,1.75,1V47.6c.68,0,1.24,0,1.81,0,.4,0,.53-.12.52-.52,0-1.38,0-2.76,0-4.14l.3,0c.41,0,.76-.12.77-.58s-.34-.6-.75-.61l-.24,0c0-.34,0-.69,0-1,.06-.54-.17-.69-.69-.68-1.77,0-1.77,0-1.73,1.77-.41.15-.58-.12-.77-.4l-7.49-11q-4.54-6.65-9.07-13.31C38.16,15.25,36.94,13.41,35.7,11.57Z"/><path id="_Path_3" data-name="&lt;Path&gt;" class="cls-3" d="M56.73,43c-.84.14-1.3-.3-1.75-1q-9.9-14.59-19.85-29.14a2.73,2.73,0,0,0-.51-.45l-.37-.61-.61.74c-.65.9-1.32,1.78-2,2.7Q22.32,28.77,13,42.32a1.47,1.47,0,0,1-1.34.64H9.24c-.14,0-.32,0-.41-.05s-.53-.41-.5-.56.34-.42.56-.59.24,0,.36,0h2.4c.19-.11.44-.18.56-.35q3.65-5.25,7.28-10.52L33.62,10.41c.41-.6.81-.6,1.23,0l.74,1,.13.14h0c1.23,1.84,2.46,3.68,3.71,5.51q4.53,6.66,9.07,13.31l7.49,11c.19.28.36.56.77.4l2.41-.06.24,0c.41,0,.75.15.75.61s-.36.58-.77.58l-.3,0Z"/><path id="_Path_4" data-name="&lt;Path&gt;" class="cls-4" d="M9.24,42.95h2.4c0,1.37,0,2.74,0,4.12,0,.39-.1.55-.51.53-.56,0-1.13,0-1.69,0a2.79,2.79,0,0,1-.21-.72C9.23,45.58,9.24,44.26,9.24,42.95Z"/><path id="_Path_5" data-name="&lt;Path&gt;" class="cls-5" d="M11.65,41.72H9.24c0-1.69,0-1.69,1.6-1.68.81,0,.81,0,.81.84C11.65,41.16,11.65,41.44,11.65,41.72Z"/><path id="_Path_6" data-name="&lt;Path&gt;" class="cls-6" d="M35.72,11.57l-.13-.14Z"/><path id="_Path_7" data-name="&lt;Path&gt;" class="cls-7" d="M33.64,12.54l.61-.74q0,8.25,0,16.5a5.6,5.6,0,0,1-.12.83C33.21,31.08,32.31,33,31.39,35c-.67,1.41-1.35,2.81-2,4.21H19.2c1.26-2,2.54-4,3.77-6A178,178,0,0,0,33.55,12.95,2.13,2.13,0,0,0,33.64,12.54Z"/><path id="_Path_8" data-name="&lt;Path&gt;" class="cls-8" d="M34.12,29.14a5.59,5.59,0,0,0,.12-.83q0-8.25,0-16.5l.37.61c1.65,3.58,3.22,7.19,5,10.72a123.93,123.93,0,0,0,9.12,15.4c.14.2.24.42.36.63H39.12a1.9,1.9,0,0,1-.25-.33c-1.24-2.66-2.47-5.33-3.72-8-.27-.58-.6-1.13-.9-1.7Z"/><path id="_Path_9" data-name="&lt;Path&gt;" class="cls-9" d="M34.25,47.59H13.5c0-1.08,0-2.11,0-3.13,0-.1.27-.26.42-.27.59,0,1.18,0,1.77,0H27.13l7.14,0Z"/><path id="_Path_10" data-name="&lt;Path&gt;" class="cls-10" d="M34.25,47.59V44.18l0,0H54.9c0,1.11,0,2.14,0,3.17,0,.09-.15.2-.26.26s-.16,0-.24,0Z"/><path id="_Path_11" data-name="&lt;Path&gt;" class="cls-11" d="M27.13,44.15H15.71l3.5-5H29.37c-.08.21-.16.41-.25.62Z"/><path id="_Path_12" data-name="&lt;Path&gt;" class="cls-12" d="M52.7,44.16H41.34c-.49-1.07-1-2.13-1.48-3.2-.26-.59-.5-1.19-.74-1.79h9.94l3.14,4.25C52.37,43.66,52.53,43.91,52.7,44.16Z"/><path id="_Path_13" data-name="&lt;Path&gt;" class="cls-13" d="M56.73,43l2.33,0c0,1.38,0,2.76,0,4.14,0,.4-.13.54-.52.52-.56,0-1.13,0-1.81,0Z"/><path id="_Path_14" data-name="&lt;Path&gt;" class="cls-14" d="M59.14,41.73l-2.41.06c0-1.77,0-1.76,1.73-1.77.52,0,.75.14.69.68C59.12,41,59.15,41.39,59.14,41.73Z"/><path id="_Path_15" data-name="&lt;Path&gt;" class="cls-15" d="M27.13,44.15l2-4.37c.09-.2.17-.41.25-.62.67-1.4,1.36-2.8,2-4.21.92-1.94,1.82-3.88,2.73-5.82h.13v15l0,0Z"/><path id="_Path_16" data-name="&lt;Path&gt;" class="cls-16" d="M34.25,44.15v-15c.3.57.63,1.12.9,1.7,1.25,2.66,2.48,5.33,3.72,8a1.9,1.9,0,0,0,.25.33c.25.6.48,1.2.74,1.79.48,1.07,1,2.13,1.48,3.2Z"/></g></g></g></g></svg>