<svg xmlns="http://www.w3.org/2000/svg" viewBox="0 0 47.36 47.36"><defs><style>.cls-1{fill:#f57031;}.cls-2{fill:#d65b2b;}.cls-3{fill:#ffdf47;}.cls-4{fill:#fec000;}.cls-5{fill:#ff9a00;}.cls-6{fill:#e67500;}.cls-7{fill:#c06200;}</style></defs><title>Asset 20_icon</title><g id="Layer_2" data-name="Layer 2"><g id="Capa_1" data-name="Capa 1"><g id="_Group_" data-name="&lt;Group&gt;"><circle id="_Path_" data-name="&lt;Path&gt;" class="cls-1" cx="23.68" cy="23.68" r="23.68"/><path id="_Path_2" data-name="&lt;Path&gt;" class="cls-2" d="M26.17,10.13l-.56-1H22.44v1H12.7V20.46H11.11V36.61L22,47.29c.54,0,1.09.06,1.64.06A23.68,23.68,0,0,0,47.36,23.68c0-.28,0-.57,0-.85l-12-12.7Z"/><rect id="_Path_3" data-name="&lt;Path&gt;" class="cls-3" x="22.11" y="8.95" width="3.14" height="1.21"/><rect id="_Path_4" data-name="&lt;Path&gt;" class="cls-4" x="23.68" y="8.95" width="1.57" height="1.21"/><rect id="_Path_5" data-name="&lt;Path&gt;" class="cls-5" x="12.43" y="9.94" width="22.49" height="12.83"/><g id="_Group_2" data-name="&lt;Group&gt;"><rect id="_Path_6" data-name="&lt;Path&gt;" class="cls-6" x="23.68" y="9.94" width="11.25" height="12.83"/><rect id="_Path_7" data-name="&lt;Path&gt;" class="cls-6" x="14.29" y="11.7" width="18.78" height="9.31"/></g><rect id="_Path_8" data-name="&lt;Path&gt;" class="cls-7" x="23.68" y="11.7" width="9.39" height="9.31"/><rect id="_Path_9" data-name="&lt;Path&gt;" class="cls-5" x="11.92" y="21.68" width="23.52" height="13.1"/><g id="_Group_3" data-name="&lt;Group&gt;"><rect id="_Path_10" data-name="&lt;Path&gt;" class="cls-6" x="23.68" y="21.68" width="11.76" height="13.1"/><rect id="_Path_11" data-name="&lt;Path&gt;" class="cls-6" x="11.92" y="27.03" width="23.52" height="4.02"/></g><rect id="_Path_12" data-name="&lt;Path&gt;" class="cls-7" x="23.68" y="27.03" width="11.76" height="4.02"/><path id="_Compound_Path_" data-name="&lt;Compound Path&gt;" class="cls-3" d="M10.85,20.21V36.26H36.5V20.21Zm24.07,5.69v8.5H12.43V22.07h9v1.71a2.13,2.13,0,0,0,2.12,2.12h.32A2.13,2.13,0,0,0,26,23.78V22.07h9v3.82Z"/><path id="_Path_13" data-name="&lt;Path&gt;" class="cls-4" d="M23.68,20.21v5.7h.16A2.13,2.13,0,0,0,26,23.78V22.07h9V34.39H23.68v1.87H36.5V20.21Z"/><g id="_Group_4" data-name="&lt;Group&gt;"><path id="_Path_14" data-name="&lt;Path&gt;" class="cls-6" d="M24.31,23.07a.63.63,0,1,0-.93.55l-.22,1.29h1L24,23.62A.63.63,0,0,0,24.31,23.07Z"/><path id="_Path_15" data-name="&lt;Path&gt;" class="cls-6" d="M24,23.62l.22,1.29h-.52V22.44a.63.63,0,0,1,.3,1.18Z"/></g></g></g></g></svg>