<svg xmlns="http://www.w3.org/2000/svg" viewBox="0 0 65.53 65.53"><defs><style>.cls-1{fill:#006387;}.cls-2{fill:#01556b;}.cls-3{fill:#02bf5c;}.cls-4{fill:#00a753;}.cls-5{fill:#ffc61b;}.cls-6{fill:#eaa22f;}.cls-7{fill:#c06200;}.cls-8{fill:#9a4c00;}</style></defs><title>Asset 24_icon</title><g id="Layer_2" data-name="Layer 2"><g id="Capa_1" data-name="Capa 1"><g id="_Group_" data-name="&lt;Group&gt;"><circle id="_Path_" data-name="&lt;Path&gt;" class="cls-1" cx="32.76" cy="32.76" r="32.76"/><path id="_Path_2" data-name="&lt;Path&gt;" class="cls-2" d="M65.53,32.76a33,33,0,0,0-.38-5L53.32,15.91a3.71,3.71,0,0,0-5.21-.52l-.42.34-11-11a4.59,4.59,0,0,0-3.32-1.43H32.14a4.62,4.62,0,0,0-4.6,4.6v3.58a4.56,4.56,0,0,0,.63,2.32,18.62,18.62,0,0,0-7.65,4.11L17.41,15.4a3.71,3.71,0,0,0-5.21.52l-.28.34a3.71,3.71,0,0,0,.52,5.21l3.18,3.15a20.85,20.85,0,0,0,.18,17.5l-3.36,2.76a3.71,3.71,0,0,0-.52,5.21l.28.34a3.18,3.18,0,0,0,.36.38L26.75,65A32.78,32.78,0,0,0,65.53,32.76Z"/><polygon id="_Path_3" data-name="&lt;Path&gt;" class="cls-3" points="37.46 51.69 28.06 51.69 32.76 62.19 32.76 62.2 37.46 51.69"/><polygon id="_Path_4" data-name="&lt;Path&gt;" class="cls-4" points="37.46 51.69 32.76 62.2 32.76 51.69 37.46 51.69"/><path id="_Path_5" data-name="&lt;Path&gt;" class="cls-3" d="M23.84,20.67l-5,6.07-6.43-5.27a3.71,3.71,0,0,1-.52-5.21l.28-.34a3.71,3.71,0,0,1,5.21-.52Z"/><path id="_Path_6" data-name="&lt;Path&gt;" class="cls-4" d="M41.69,20.67l5,6.07,6.43-5.27a3.71,3.71,0,0,0,.52-5.21l-.28-.34a3.71,3.71,0,0,0-5.21-.52Z"/><path id="_Path_7" data-name="&lt;Path&gt;" class="cls-3" d="M23.84,45.67l-5-6.07-6.43,5.27a3.71,3.71,0,0,0-.52,5.21l.28.34a3.71,3.71,0,0,0,5.21.52Z"/><path id="_Path_8" data-name="&lt;Path&gt;" class="cls-4" d="M41.69,45.67l5-6.07,6.43,5.27a3.71,3.71,0,0,1,.52,5.21l-.28.34a3.71,3.71,0,0,1-5.21.52Z"/><path id="_Path_9" data-name="&lt;Path&gt;" class="cls-3" d="M33.39,16.12H32.14a4.62,4.62,0,0,1-4.6-4.6V7.93a4.62,4.62,0,0,1,4.6-4.6h1.25A4.62,4.62,0,0,1,38,7.93v3.58A4.62,4.62,0,0,1,33.39,16.12Z"/><path id="_Path_10" data-name="&lt;Path&gt;" class="cls-4" d="M38,7.93v3.58a4.62,4.62,0,0,1-4.6,4.6h-.62V3.33h.62A4.62,4.62,0,0,1,38,7.93Z"/><ellipse id="_Path_11" data-name="&lt;Path&gt;" class="cls-5" cx="32.76" cy="33.17" rx="18.98" ry="19.93"/><path id="_Path_12" data-name="&lt;Path&gt;" class="cls-6" d="M51.74,33.17c0,11-8.5,19.93-19,19.93V13.24C43.24,13.24,51.74,22.16,51.74,33.17Z"/><ellipse id="_Path_13" data-name="&lt;Path&gt;" class="cls-5" cx="32.76" cy="33.17" rx="15.59" ry="16.38"/><path id="_Path_14" data-name="&lt;Path&gt;" class="cls-6" d="M48.36,33.17c0,9-7,16.38-15.59,16.38V16.79C41.38,16.79,48.36,24.13,48.36,33.17Z"/><polygon id="_Path_15" data-name="&lt;Path&gt;" class="cls-7" points="28.6 39.97 24.68 33.17 28.6 26.37 36.45 26.37 40.37 33.17 36.45 39.97 28.6 39.97"/><polygon id="_Path_16" data-name="&lt;Path&gt;" class="cls-8" points="40.37 33.17 36.45 39.96 32.76 39.96 32.76 26.37 36.45 26.37 40.37 33.17"/><path id="_Path_17" data-name="&lt;Path&gt;" class="cls-7" d="M39.6,18.45,36.68,23.5h-8.3l-2.81-4.86a15,15,0,0,1,14-.19Z"/><path id="_Path_18" data-name="&lt;Path&gt;" class="cls-8" d="M39.6,18.45,36.68,23.5H32.76V16.79A14.93,14.93,0,0,1,39.6,18.45Z"/><path id="_Path_19" data-name="&lt;Path&gt;" class="cls-7" d="M39.6,47.89a15,15,0,0,1-14-.19l2.81-4.86h8.3Z"/><g id="_Group_2" data-name="&lt;Group&gt;"><path id="_Path_20" data-name="&lt;Path&gt;" class="cls-8" d="M39.6,47.89a14.93,14.93,0,0,1-6.83,1.65V42.83h3.91Z"/><path id="_Path_21" data-name="&lt;Path&gt;" class="cls-8" d="M48.31,34.41A16.5,16.5,0,0,1,41.16,47l-3.1-5.37,4.15-7.19Z"/><path id="_Path_22" data-name="&lt;Path&gt;" class="cls-8" d="M48.31,31.93h-6.1l-4.15-7.19,3.1-5.37A16.51,16.51,0,0,1,48.31,31.93Z"/></g><g id="_Group_3" data-name="&lt;Group&gt;"><path id="_Path_23" data-name="&lt;Path&gt;" class="cls-7" d="M27,41.6l-3,5.13a16.53,16.53,0,0,1-6.81-12.32h5.62Z"/><path id="_Path_24" data-name="&lt;Path&gt;" class="cls-7" d="M27,24.74l-4.15,7.19H17.21A16.53,16.53,0,0,1,24,19.61Z"/></g></g></g></g></svg>