<svg xmlns="http://www.w3.org/2000/svg" viewBox="0 0 20.48 20.48"><defs><style>.cls-1{fill:#fff;}.cls-2{fill:#1d1d1d;}</style></defs><title>twitter</title><g id="Layer_2" data-name="Layer 2"><g id="Capa_1" data-name="Capa 1"><g id="_Group_" data-name="&lt;Group&gt;"><circle id="_Path_" data-name="&lt;Path&gt;" class="cls-1" cx="10.24" cy="10.24" r="10.24"/><path id="_Path_2" data-name="&lt;Path&gt;" class="cls-1" d="M15.72,5.57a20,20,0,0,0-3,2.87C10.59,11,8,14.67,4.43,14.13l6.34,6.34a10.24,10.24,0,0,0,9.71-10.13Z"/><path id="_Path_3" data-name="&lt;Path&gt;" class="cls-2" d="M15.91,6.5a4.63,4.63,0,0,1-.81.27,2.52,2.52,0,0,0,.67-1.06.13.13,0,0,0-.19-.15,4.66,4.66,0,0,1-1.24.51h-.08A.33.33,0,0,1,14,6a2.53,2.53,0,0,0-1.67-.63,2.7,2.7,0,0,0-.8.12A2.45,2.45,0,0,0,9.93,7.25a2.7,2.7,0,0,0-.06.93.09.09,0,0,1,0,.07.09.09,0,0,1-.07,0h0A6.63,6.63,0,0,1,5.21,5.85a.13.13,0,0,0-.22,0A2.53,2.53,0,0,0,5.4,8.94a2.27,2.27,0,0,1-.58-.22.13.13,0,0,0-.2.11,2.53,2.53,0,0,0,1.48,2.33H6.05a2.26,2.26,0,0,1-.43,0,.13.13,0,0,0-.15.17,2.53,2.53,0,0,0,2,1.72,4.66,4.66,0,0,1-2.61.79H4.57a.19.19,0,0,0-.19.15.2.2,0,0,0,.1.22A6.94,6.94,0,0,0,8,15.11a7,7,0,0,0,3-.63,6.58,6.58,0,0,0,2.18-1.63,7.16,7.16,0,0,0,1.33-2.23,7.06,7.06,0,0,0,.45-2.45v0a.43.43,0,0,1,.16-.33,5,5,0,0,0,1-1.1.13.13,0,0,0-.16-.19Z"/><path id="_Path_4" data-name="&lt;Path&gt;" class="cls-2" d="M15.91,6.5a4.64,4.64,0,0,1-.81.27,2.52,2.52,0,0,0,.67-1.06.13.13,0,0,0-.19-.15,4.66,4.66,0,0,1-1.24.51h-.08A.33.33,0,0,1,14,6a2.53,2.53,0,0,0-1.67-.63,2.7,2.7,0,0,0-.8.12,2.45,2.45,0,0,0-1.36,1.06v8.22a6.55,6.55,0,0,0,2.91-1.92,7.16,7.16,0,0,0,1.33-2.23,7.06,7.06,0,0,0,.45-2.45v0a.43.43,0,0,1,.16-.33,5,5,0,0,0,1-1.1A.13.13,0,0,0,15.91,6.5Z"/></g></g></g></svg>