<svg xmlns="http://www.w3.org/2000/svg" viewBox="0 0 110.95 31.32"><defs><style>.cls-1{fill:#fff;}</style></defs><title>Valparaiso_logo_white</title><g id="Layer_2" data-name="Layer 2"><g id="Capa_1" data-name="Capa 1"><g id="_Group_" data-name="&lt;Group&gt;"><path id="_Compound_Path_" data-name="&lt;Compound Path&gt;" class="cls-1" d="M43.27,31.32c.09-.14.15-.34.28-.41a.81.81,0,0,0,.43-.83c0-1.26,0-2.52,0-3.79s0-2.52,0-3.79c0-.51,0-.95-.6-1.13,0,0-.06-.09-.11-.16.25-.32.63-.13.92-.27a5.84,5.84,0,0,1,.94-.26l0,.91a10,10,0,0,0,1.45-.51,2.32,2.32,0,0,1,2.9,1,3.73,3.73,0,0,1,.2,3.45,2,2,0,0,1-1.31,1.19c-.54.16-1.07.39-1.59.6a1.53,1.53,0,0,1-1.2.09,1.82,1.82,0,0,0-.48,0c0,.33,0,.64,0,.95,0,.57,0,1.14,0,1.72a.79.79,0,0,0,.44.88c.19.08.2.22.16.38ZM45.15,22c0,1.39,0,2.69,0,4a.64.64,0,0,0,.17.46,1.74,1.74,0,0,0,1.91.35,2.19,2.19,0,0,1,.44-.17,1.12,1.12,0,0,0,.74-.63,3.44,3.44,0,0,0,0-3.22,2,2,0,0,0-2.12-1.16A8.5,8.5,0,0,0,45.15,22Z"/><path id="_Compound_Path_2" data-name="&lt;Compound Path&gt;" class="cls-1" d="M110.95,14.52a16.83,16.83,0,0,0-1.58.57,1.61,1.61,0,0,1-1.55,0c-.46-.24-1-.41-1.53-.64a3.19,3.19,0,0,1,.31-.18c.52-.22,1-.43,1.57-.66a1,1,0,0,1,.83,0c.65.27,1.3.52,2,.78Zm-3.2-.38h1.65C108.58,13.7,108.58,13.7,107.75,14.14Z"/><path id="_Path_" data-name="&lt;Path&gt;" class="cls-1" d="M87.61,13.74c.47,0,.94,0,1.41,0s.66.06,1,.08l4.84.16,5.24.22,3.42.14a3.69,3.69,0,0,1,.5.1c-.13.07-.16.1-.19.1l-3.48.13-3.89.13-2.65.11-6,.24-5.54.23-3.12.12-5.3.23-3.42.13c-1.37.06-2.75.12-4.12.22a.83.83,0,0,1-.93-.52,6,6,0,0,0-.5-.79.5.5,0,0,1,0-.65,9.82,9.82,0,0,0,.67-1,.52.52,0,0,1,.58-.29c.51,0,1,.06,1.53.09a19.5,19.5,0,0,1,2.47.14c.82.15,1.63,0,2.44.09l1.1.12a1.47,1.47,0,0,0,.41,0,14.89,14.89,0,0,1,2.52,0v.21l-2.81-.11-4.77-.14h-.18c-.9,0-1.8-.08-2.71-.1a.55.55,0,0,0-.4.18,9.53,9.53,0,0,0-.53.87H90.19v-.07l-2.55-.15Z"/><path id="_Path_2" data-name="&lt;Path&gt;" class="cls-1" d="M40.31,13l3.77-.15c.23,0,.47-.05.7-.08a.52.52,0,0,1,.56.23c.29.47.59.92.9,1.4l-1.06,1.66c-1.39-.07-2.76-.15-4.13-.21-.75,0-1.5,0-2.25,0L33,15.57,30,15.44l-5.71-.23-2.77-.11L18.43,15l-2.71-.11-6-.25-2.06-.1a2.66,2.66,0,0,1-.34-.08,1.88,1.88,0,0,1,.35-.13c.16,0,.32,0,.47,0l4.3-.14L15.08,14l3.48-.13,4.71-.21v.21l-2.67.16v0h25.1l-.63-1h-.4l-4.48.13Z"/><path id="_Compound_Path_3" data-name="&lt;Compound Path&gt;" class="cls-1" d="M37.67,9.89H36.25c-.48,0-.48,0-.59-.56a11.85,11.85,0,0,0-1.2.43A2.49,2.49,0,0,1,30.91,8a3.58,3.58,0,0,1,.28-2.79,2.13,2.13,0,0,1,1.07-1c.69-.28,1.39-.55,2.09-.78a1.71,1.71,0,0,1,.69,0,5.8,5.8,0,0,1,.67.16c0-.79,0-1.56,0-2.32a.81.81,0,0,0-.25-.43,2,2,0,0,0-.4-.27c.25-.39.65-.2.93-.32a8.33,8.33,0,0,1,1-.27c0,.17,0,.34,0,.5,0,2.66,0,5.32,0,8,0,.46,0,.87.52,1.06C37.55,9.56,37.57,9.69,37.67,9.89Zm-2-1c0-1.36,0-2.69,0-4a.5.5,0,0,0-.07-.27A2.08,2.08,0,0,0,33.92,4c-.3.09-.59.22-.88.32a1.24,1.24,0,0,0-.73.73,3.78,3.78,0,0,0,0,2.92,2,2,0,0,0,2.2,1.31A7.75,7.75,0,0,0,35.71,8.9Z"/><path id="_Compound_Path_4" data-name="&lt;Compound Path&gt;" class="cls-1" d="M29.9,9.73a4.8,4.8,0,0,1-2.61,0,1.27,1.27,0,0,1,.17-.23.53.53,0,0,0,.12-.69c-.31-.72-.61-1.44-.94-2.21H23.06a.46.46,0,0,0-.52.35c-.2.55-.44,1.09-.68,1.63-.17.38-.34.76,0,1.2a6.26,6.26,0,0,1-2,.14l-.05-.15a1.44,1.44,0,0,1,.33-.25A1.53,1.53,0,0,0,21,8.58Q22.56,5,24.13,1.48l.43-1c.07-.17.16-.36.37-.29a.57.57,0,0,1,.31.29c.41.91.8,1.83,1.19,2.75l2.33,5.45a1.58,1.58,0,0,0,.77.78C29.66,9.56,29.78,9.65,29.9,9.73ZM22.92,6h3.46L24.63,1.9Z"/><path id="_Path_3" data-name="&lt;Path&gt;" class="cls-1" d="M27.19,26.09l1-1.95c.62-1.27,1.21-2.56,1.87-3.8a1.12,1.12,0,0,0-.17-1.53c-.1-.09-.18-.21-.36-.41a2.09,2.09,0,0,1,.34-.2c.29-.1.45-.58.86-.31a1.12,1.12,0,0,1,.56,1.4c-.18.48-.41.94-.63,1.39-1,2.1-2.05,4.2-3.05,6.31a.55.55,0,0,1-.58.38h-.24c-.57,0-.58,0-.76-.52-.42-1.16-.83-2.32-1.24-3.48-.49-1.34-1-2.68-1.46-4a1.64,1.64,0,0,0-1-1.12A1.38,1.38,0,0,1,22,18a5.85,5.85,0,0,1,2.53,0s0,.1,0,.11c-.37.33-.3.68-.13,1.1.87,2.18,1.71,4.38,2.56,6.57A3,3,0,0,0,27.19,26.09Z"/><path id="_Path_4" data-name="&lt;Path&gt;" class="cls-1" d="M55.22,9.71a5.61,5.61,0,0,1-2.55.07c.08-.12.13-.26.22-.3a.72.72,0,0,0,.43-.76c0-1.34,0-2.68,0-4a.67.67,0,0,0-.42-.7,2.23,2.23,0,0,1-.39-.32l1.95-.43.08.79c.21-.06.41-.1.59-.17a5.38,5.38,0,0,1,2-.47,1.59,1.59,0,0,1,1.51.93,4.5,4.5,0,0,1,.39,1.88c0,.81,0,1.62,0,2.42,0,.38,0,.7.45.86.09,0,.13.19.27.39h-1.7c-.23,0-.27-.18-.27-.38q0-1,0-2c0-.55,0-1.11,0-1.65a3.32,3.32,0,0,0-.27-1.07,1.37,1.37,0,0,0-1.76-.77c-.41.12-.81.28-1.27.45v.81c0,1.06,0,2.13,0,3.19,0,.47.07.86.56,1C55.13,9.57,55.17,9.65,55.22,9.71Z"/><path id="_Path_5" data-name="&lt;Path&gt;" class="cls-1" d="M69.76,3.67l2-.43c0,.21,0,.39,0,.56,0,1.6,0,3.19,0,4.79,0,.4,0,.74.47.91.08,0,.12.17.21.31a11.8,11.8,0,0,1-1.78.07l-.14-.47a1.78,1.78,0,0,0-.33,0,16.34,16.34,0,0,1-1.56.5A2.1,2.1,0,0,1,67,9.79a2,2,0,0,1-.87-1.53C66,7.62,66,7,66,6.32s0-1.1,0-1.66A.61.61,0,0,0,65.63,4c-.15-.06-.28-.14-.22-.38l1.73-.36c0,.17,0,.32,0,.47,0,.85,0,1.7,0,2.54a12.11,12.11,0,0,0,.11,1.64,2.58,2.58,0,0,0,.38,1,1.3,1.3,0,0,0,1.46.53,13.61,13.61,0,0,0,1.45-.48c0-1.43,0-2.81,0-4.19A.77.77,0,0,0,70.14,4,2.55,2.55,0,0,1,69.76,3.67Z"/><path id="_Compound_Path_5" data-name="&lt;Compound Path&gt;" class="cls-1" d="M57.81,27.29H56l-.11-.44a.86.86,0,0,0-.18,0c-.5.18-1,.38-1.49.54a2.35,2.35,0,0,1-2.53-.79,3.63,3.63,0,0,1-.34-3.79,2,2,0,0,1,1.17-1.1c.68-.26,1.35-.53,2-.76a1.59,1.59,0,0,1,.64,0,1.9,1.9,0,0,1,.57.15c.45.19.88.33,1.26-.07.26.12.18.32.18.49,0,1.5,0,3,0,4.5,0,.47,0,.86.53,1.06,0,0,0,.06.07.09S57.81,27.18,57.81,27.29Zm-1.78-3c0-.57,0-1.14,0-1.71a.82.82,0,0,0-.11-.44,2,2,0,0,0-1.87-.6c-.19.06-.36.14-.55.2a1.49,1.49,0,0,0-1,.92,3.67,3.67,0,0,0,0,2.86,2,2,0,0,0,2.09,1.3,3,3,0,0,0,.78-.22c.64-.24.64-.25.64-.9Q56,25,56,24.29Z"/><path id="_Compound_Path_6" data-name="&lt;Compound Path&gt;" class="cls-1" d="M70.61,21.06v.57c0,1.48,0,3,0,4.44a.89.89,0,0,0,.56,1,2.15,2.15,0,0,1,.22.13,1.78,1.78,0,0,1-1,.13c-.29,0-.59,0-.92,0l-.15-.51-1.5.52A2.29,2.29,0,0,1,65,26.39a3.61,3.61,0,0,1,0-3.81,1.86,1.86,0,0,1,1-.85c.59-.21,1.18-.43,1.76-.67A1.74,1.74,0,0,1,69,21l.11,0c.46.22.91.37,1.36-.09Zm-1.2,1.14a2.13,2.13,0,0,0-2.61-.42,1.66,1.66,0,0,0-.83.78,3.5,3.5,0,0,0,0,3A2,2,0,0,0,68,26.82a5,5,0,0,0,1.17-.37.47.47,0,0,0,.2-.37C69.42,24.78,69.41,23.48,69.41,22.2Z"/><path id="_Compound_Path_7" data-name="&lt;Compound Path&gt;" class="cls-1" d="M37.24,21v.67c0,1.44,0,2.87,0,4.31,0,.48,0,.91.58,1.07a.16.16,0,0,1,.08.09.64.64,0,0,1,0,.15H36.09L36,26.8a14.56,14.56,0,0,0-1.39.5,2.4,2.4,0,0,1-3.17-1.21,3.66,3.66,0,0,1,0-3.29,2,2,0,0,1,1.23-1.11c.59-.2,1.17-.44,1.75-.67a1.5,1.5,0,0,1,1.14,0c.18.07.38.1.56.17a.65.65,0,0,0,.81-.09S37.06,21,37.24,21ZM36,26.4c0-1.38,0-2.7,0-4a.47.47,0,0,0-.26-.42,2.05,2.05,0,0,0-2.15-.26A1.93,1.93,0,0,0,32.45,23a3.55,3.55,0,0,0,.07,2.42,2,2,0,0,0,2.19,1.43A9,9,0,0,0,36,26.4Z"/><path id="_Compound_Path_8" data-name="&lt;Compound Path&gt;" class="cls-1" d="M85.07,6.6h-4.5a2.37,2.37,0,0,0,.52,1.88,2.18,2.18,0,0,0,1.78.88,6.22,6.22,0,0,0,1.93-.56,1.07,1.07,0,0,1-.58.85,2.29,2.29,0,0,1-1.28.38,8.85,8.85,0,0,1-1.63-.14,2.67,2.67,0,0,1-2-1.93A3.86,3.86,0,0,1,79.9,4.5a2.5,2.5,0,0,1,1.78-1.05,2.83,2.83,0,0,1,2.77.74A3,3,0,0,1,85.07,6.6Zm-4.5-.51h3.48c0-1.41-.63-2.15-1.79-2.11A1.8,1.8,0,0,0,80.57,6.09Z"/><path id="_Compound_Path_9" data-name="&lt;Compound Path&gt;" class="cls-1" d="M88.84,24.27a3.2,3.2,0,0,1-3,3.25A3.29,3.29,0,0,1,82.32,25,3.33,3.33,0,0,1,83,22.08a1.61,1.61,0,0,1,.85-.6c.39-.11.77-.28,1.15-.43a2.27,2.27,0,0,1,1.67,0A3.21,3.21,0,0,1,88.84,24.27Zm-1.2.14A4,4,0,0,0,87,22.3a1.68,1.68,0,0,0-3,0,3.63,3.63,0,0,0,.23,4,1.63,1.63,0,0,0,2.84-.13A3.86,3.86,0,0,0,87.64,24.41Z"/><path id="_Compound_Path_10" data-name="&lt;Compound Path&gt;" class="cls-1" d="M51.66,6.62H47.13a2.48,2.48,0,0,0,1.33,2.52,3.11,3.11,0,0,0,2.83-.37.59.59,0,0,1-.28.67,3.55,3.55,0,0,1-1.1.52,4,4,0,0,1-2.69-.34,2.88,2.88,0,0,1-1.47-2.35A4.33,4.33,0,0,1,46,5.36a2.85,2.85,0,0,1,2.73-2,4,4,0,0,1,1,.06,2.44,2.44,0,0,1,1.95,2.3A7.83,7.83,0,0,1,51.66,6.62ZM50.6,6.11a2.54,2.54,0,0,0-.4-1.56A1.16,1.16,0,0,0,49.28,4a3.08,3.08,0,0,0-.7,0,1.38,1.38,0,0,0-1.09.71,2.3,2.3,0,0,0-.4,1.4Z"/><path id="_Path_6" data-name="&lt;Path&gt;" class="cls-1" d="M90.72,4l-.2,1.38c-.18-.25-.3-.39-.4-.54a2.06,2.06,0,0,0-1.44-.93,1.33,1.33,0,0,0-1.44.85.67.67,0,0,0,.41,1c.53.2,1.08.35,1.62.52.2.06.41.14.61.19A1.45,1.45,0,0,1,91,7.86a1.79,1.79,0,0,1-.8,1.56,2.7,2.7,0,0,1-1.52.56,12.65,12.65,0,0,1-1.88-.11.45.45,0,0,1-.31-.23c-.17-.42-.31-.84-.44-1.27,0-.07,0-.15,0-.32a2.49,2.49,0,0,1,.28.35,2.3,2.3,0,0,0,3.14.77A.88.88,0,0,0,90,8.29a.84.84,0,0,0-.58-.81c-.44-.16-.9-.26-1.35-.41A7,7,0,0,1,87,6.61a1.6,1.6,0,0,1,0-2.76,3.35,3.35,0,0,1,3.22-.1C90.37,3.81,90.52,3.9,90.72,4Z"/><path id="_Path_7" data-name="&lt;Path&gt;" class="cls-1" d="M76.5,25.56c.13.19.23.32.31.46A1.78,1.78,0,0,0,78.4,27a2.76,2.76,0,0,0,1.32-.21.92.92,0,0,0,.59-1c0-.48-.17-.67-.67-.84s-1.32-.38-2-.63a1.59,1.59,0,0,1-1.12-1.18,1.71,1.71,0,0,1,.79-1.81,3.54,3.54,0,0,1,3.67.23l-.18,1.35c-.15-.21-.24-.3-.3-.41a2.3,2.3,0,0,0-1.31-1,1.34,1.34,0,0,0-1.68.87.63.63,0,0,0,.34.83,7.18,7.18,0,0,0,1,.37c.48.16,1,.31,1.46.45A1.62,1.62,0,0,1,81,26.53a2.58,2.58,0,0,1-1.1.76,4.94,4.94,0,0,1-2.67.08.48.48,0,0,1-.32-.21c-.18-.45-.33-.92-.48-1.38C76.39,25.75,76.44,25.69,76.5,25.56Z"/><path id="_Path_8" data-name="&lt;Path&gt;" class="cls-1" d="M62.77,3.44h1.61c.09.62.05.67-.47.68h-1.1c0,.17,0,.32,0,.47,0,1.18,0,2.36,0,3.54a1.31,1.31,0,0,0,.94,1.44.48.48,0,0,1,.14.1s0,0,0,.1-.15.11-.22.11c-.43,0-.85-.13-1.28-.18a.88.88,0,0,1-.76-.78,4,4,0,0,1-.1-.87c0-1.06,0-2.13,0-3.19V4.23l-.88-.06c.08-.52.62-.45.88-.8,0-.23,0-.52,0-.81a.83.83,0,0,1,.59-1,4.65,4.65,0,0,0,.48-.23c.33.3.15.68.18,1S62.77,3,62.77,3.44Z"/><path id="_Path_9" data-name="&lt;Path&gt;" class="cls-1" d="M38.69,3.66a6.1,6.1,0,0,1,2.53,0c0,.05,0,.13,0,.15a.61.61,0,0,0-.16.83c.53,1.22,1,2.46,1.53,3.69a3.48,3.48,0,0,0,.18.32l.78-1.84c.23-.54.45-1.08.69-1.62a.8.8,0,0,0-.12-1A1.33,1.33,0,0,1,43.94,4l.65-.53c.1.09.16.16.24.21a.75.75,0,0,1,.22,1c-.21.44-.39.9-.59,1.34L42.94,9.46c-.24.55-.24.55-.94.51L41,7.69c-.42-1-.85-2-1.26-3a1.29,1.29,0,0,0-.69-.76A3.44,3.44,0,0,1,38.69,3.66Z"/><path id="_Path_10" data-name="&lt;Path&gt;" class="cls-1" d="M41,17.53v.73c0,2.56,0,5.12,0,7.68,0,.52.07.93.61,1.14,0,0,0,.09.1.19H39.16c.14-.15.2-.27.31-.32a.63.63,0,0,0,.38-.66q0-3.66,0-7.33a.64.64,0,0,0-.37-.67,1.44,1.44,0,0,1-.3-.27c.28-.3.63-.14.91-.24A9.62,9.62,0,0,1,41,17.53Z"/><path id="_Path_11" data-name="&lt;Path&gt;" class="cls-1" d="M78.44,3.57l-.17,1.66c-.15-.07-.26-.1-.32-.17s-.11-.25-.19-.36A.94.94,0,0,0,76,4.88a5.42,5.42,0,0,0-.22,1.21c0,.83,0,1.66,0,2.48a.87.87,0,0,0,.57,1,.26.26,0,0,1,.09.07s0,0,0,.1-.17.15-.26.15c-.73,0-1.45,0-2.14,0-.17-.24,0-.36.11-.42.36-.14.42-.41.41-.76,0-1.28,0-2.56,0-3.85,0-.46-.09-.81-.57-1,0,0-.07-.09-.13-.17.24-.33.62-.15.91-.25s.6-.16.94-.25l.08.8c.54-.19,1.05-.36,1.56-.55A1.1,1.1,0,0,1,78.44,3.57Z"/><path id="_Path_12" data-name="&lt;Path&gt;" class="cls-1" d="M61.83,27.28H59.15c.17-.16.25-.28.35-.32a.69.69,0,0,0,.43-.7q0-2,0-4.08a.66.66,0,0,0-.45-.69c-.15-.05-.29-.15-.21-.36l1.83-.4,0,.81,1.23-.46a1.88,1.88,0,0,1,1-.15c.2,0,.32.14.29.36-.05.45-.1.89-.15,1.42-.13-.05-.27-.06-.33-.14a4,4,0,0,1-.22-.41.93.93,0,0,0-1.63.11,3,3,0,0,0-.23,1.08c0,.93,0,1.85,0,2.78,0,.41,0,.74.48.9C61.66,27,61.7,27.12,61.83,27.28Z"/><path id="_Path_13" data-name="&lt;Path&gt;" class="cls-1" d="M72.54,21.38l1.91-.43c0,.13,0,.28,0,.42,0,1.58,0,3.15,0,4.73,0,.4,0,.75.47.91.08,0,.12.17.18.27a6,6,0,0,1-2.56,0c.11-.1.18-.22.29-.27a.63.63,0,0,0,.38-.66q0-1.95,0-3.9c0-.34,0-.63-.44-.72C72.71,21.66,72.66,21.52,72.54,21.38Z"/><path id="_Path_14" data-name="&lt;Path&gt;" class="cls-1" d="M40.31,13l-.12.22c-.33,0-.66.08-1,.1l-2.52.12-2.94.12-3,.12-3.41.12-4.06.12V13.7l3-.13,6.07-.24,2.89-.12L40,13Z"/><path id="_Compound_Path_11" data-name="&lt;Compound Path&gt;" class="cls-1" d="M4.74,14.44c-.76.31-1.43.59-2.1.84a.78.78,0,0,1-.5,0C1.46,15,.79,14.75,0,14.43l1.7-.72a1.19,1.19,0,0,1,1.31,0Zm-1.48-.28a1.33,1.33,0,0,0-1.74,0Z"/><path id="_Compound_Path_12" data-name="&lt;Compound Path&gt;" class="cls-1" d="M63.35,14.4h-2c-.05,1.07.59,1.41,1.86,1-.06.35-.33.44-.57.52a1.57,1.57,0,0,1-1.83-.7,1.72,1.72,0,0,1,.36-2,1.53,1.53,0,0,1,1.6-.2A1.18,1.18,0,0,1,63.35,14.4Zm-.46-.26c0-.68-.2-1-.66-1s-.81.33-.91,1Z"/><path id="_Path_15" data-name="&lt;Path&gt;" class="cls-1" d="M48.71,13.1c.08-.24.28-.24.48-.23a1.55,1.55,0,0,1,1.41,1.36,1.5,1.5,0,0,1-1,1.6,1.52,1.52,0,0,1-1.87-2.12,1,1,0,0,1,1-.63,1.58,1.58,0,0,1-.18.22,1.58,1.58,0,0,0-.09,2,.75.75,0,0,0,1.08.2,1.51,1.51,0,0,0,.38-1.66C49.66,13.27,49.44,13.1,48.71,13.1Z"/><path id="_Path_16" data-name="&lt;Path&gt;" class="cls-1" d="M76.64,13.45v-.21l3,.1c1.33,0,2.67.09,4,.14,1.17.05,2.34.13,3.52.19l.46.06,0,.18-2.46-.1-2.81-.12-3.69-.13c-.49,0-1,0-1.47,0A4.39,4.39,0,0,1,76.64,13.45Z"/><path id="_Path_17" data-name="&lt;Path&gt;" class="cls-1" d="M52,12.8c.28.16.63-.07.76.38l-.68.06a4.73,4.73,0,0,0,.13,2.57h-.95a7.66,7.66,0,0,0,.14-.88c0-.53,0-1.06,0-1.63L51,13.13a.64.64,0,0,0,.43-.73.73.73,0,0,1,.63-.86c.13,0,.26-.1.39-.13.29-.08.29-.08.47.34-.27,0-.59-.24-.8.1S52,12.53,52,12.8Z"/><path id="_Path_18" data-name="&lt;Path&gt;" class="cls-1" d="M55.25,13.28l-.41-.12c.29-.16.46-.33.42-.66s.16-.46.52-.48l.06.84.78.05c-.11.5-.55.19-.81.41,0,.58,0,1.21,0,1.83,0,.23.24.45.37.67H56c-.6,0-.75-.17-.77-.78,0-.39,0-.79,0-1.18C55.25,13.67,55.25,13.48,55.25,13.28Z"/><path id="_Path_19" data-name="&lt;Path&gt;" class="cls-1" d="M72.05,19.6a2.6,2.6,0,0,1,.3-.32l2.13-1.46a1.75,1.75,0,0,1,.3-.18.54.54,0,0,1,.63.17.58.58,0,0,1-.2.72,4.38,4.38,0,0,1-.54.22l-2.2.8A2.27,2.27,0,0,1,72.05,19.6Z"/><path id="_Path_20" data-name="&lt;Path&gt;" class="cls-1" d="M58.09,13.25a.57.57,0,0,0-.26.49c0,.47,0,.95,0,1.42a3.13,3.13,0,0,0,.21.67H56.92a.78.78,0,0,0,.42-.81c0-.89,0-1.77,0-2.66a.85.85,0,0,0-.33-.85l.83-.14c0,.54,0,1,0,1.56,0,.15,0,.28.21.27Z"/><path id="_Path_21" data-name="&lt;Path&gt;" class="cls-1" d="M58,13.19a4.55,4.55,0,0,1,.52-.23c.85-.26,1.33.07,1.38,1,0,.39,0,.79,0,1.18a4.36,4.36,0,0,0,.15.67h-.74c0-.4,0-.81,0-1.21,0-.18,0-.36,0-.53,0-.67-.31-.9-1-.83l-.29,0Z"/></g></g></g></svg>