<svg xmlns="http://www.w3.org/2000/svg" viewBox="0 0 47.95 47.95"><defs><style>.cls-1{fill:#f57031;}.cls-2{fill:#d65b2b;}.cls-3{fill:#f5fcfc;}.cls-4{fill:#dafcff;}</style></defs><title>Asset 21_icon</title><g id="Layer_2" data-name="Layer 2"><g id="Capa_1" data-name="Capa 1"><g id="_Group_" data-name="&lt;Group&gt;"><circle id="_Path_" data-name="&lt;Path&gt;" class="cls-1" cx="23.98" cy="23.98" r="23.98"/><path id="_Path_2" data-name="&lt;Path&gt;" class="cls-2" d="M48,24v-.07L34,10l-4.18,2.71v6.26l.54.54L18,30.84l-1.05-1.05h-4L10,34.06,23.91,48H24A24,24,0,0,0,48,24Z"/><path id="_Path_3" data-name="&lt;Path&gt;" class="cls-3" d="M18.71,31.51l12.8-12.8a4.65,4.65,0,0,0,6.59-4.53.4.4,0,0,0-.68-.25l-2.5,2.5-2.82-.56L31.53,13l2.5-2.5a.4.4,0,0,0-.26-.68,4.64,4.64,0,0,0-4.51,6.59l-12.8,12.8a4.65,4.65,0,0,0-6.59,4.53.4.4,0,0,0,.68.25l2.5-2.5,2.82.56.56,2.82-2.5,2.5a.4.4,0,0,0,.26.68,4.64,4.64,0,0,0,4.51-6.59Z"/><path id="_Path_4" data-name="&lt;Path&gt;" class="cls-4" d="M38.09,14.18a.4.4,0,0,0-.68-.25l-2.5,2.5-2.82-.56v0L15.82,32.08h0l.56,2.82-2.5,2.5a.4.4,0,0,0,.26.68,4.64,4.64,0,0,0,4.51-6.59l12.8-12.8a4.65,4.65,0,0,0,6.59-4.53Z"/></g></g></g></svg>